<svg width="1596" height="309" viewBox="0 0 1596 309" fill="none" xmlns="http://www.w3.org/2000/svg">
<path d="M1595.58 -1021.18L1595.58 -218.213C1518.34 -159.294 1416.73 -126.851 1322.25 -149.036C1262.71 -162.983 1203.88 -197.737 1144.14 -184.644C1094.12 -173.554 1056.66 -129.954 1035.62 -83.1143C1014.59 -36.2749 1006.24 15.0764 991.192 64.321C967.532 141.052 925.222 214.001 860.285 261.056C795.348 308.111 705.475 324.635 632.965 290.759C554.427 253.999 497.994 162.832 411.183 163.663C314.006 164.62 252.165 282.114 155.511 292.437C93.7787 298.937 36.2199 259.012 -4.28896 212.143C-45.018 165.532 -75.8643 109.91 -121.995 68.0847C-152.45 40.9006 -192.504 20.2926 -232.328 17.2788L-232.328 -1021.18L1595.58 -1021.18Z" fill="white" fill-opacity="0.05"/>
</svg>
