<svg width="1596" height="309" viewBox="0 0 1596 309" fill="none" xmlns="http://www.w3.org/2000/svg">
<path d="M649.408 -1021.18L1595.58 -218.212C1518.34 -159.293 1416.73 -126.851 1322.25 -149.036C1262.71 -162.982 1203.88 -197.737 1144.14 -184.644C1094.12 -173.553 1056.66 -129.953 1035.62 -83.114C1014.59 -36.2745 1006.24 15.0767 991.192 64.3213C967.532 141.052 925.222 214.002 860.285 261.056C795.348 308.111 705.475 324.635 632.964 290.759C554.427 253.999 497.994 162.832 411.183 163.664C314.005 164.62 252.165 282.114 155.511 292.437C93.7785 298.937 36.2196 259.012 -4.28921 212.143C-45.0182 165.533 -75.8645 109.91 -121.995 68.085C-152.45 40.9009 -192.504 20.293 -232.328 17.2791L649.408 -1021.18Z" fill="white" fill-opacity="0.05"/>
</svg>
