<svg width="1596" height="816" viewBox="0 0 1596 816" fill="none" xmlns="http://www.w3.org/2000/svg">
<path d="M1121.27 -1312.38L2417.08 198.516C2279.84 272.334 2110.7 298.06 1966.65 239.053C1875.86 201.923 1791.46 132.014 1693.52 137.662C1611.49 142.596 1541.13 202.195 1495.97 271.077C1450.82 339.958 1424.61 419.188 1388.33 493.392C1331.46 608.958 1246.01 713.823 1131.26 771.956C1016.51 830.089 869.972 833.562 763.676 761.588C648.562 683.522 582.211 524.859 444.492 504.249C290.321 481.218 162.673 651.71 6.96401 643.648C-92.4627 638.352 -173.547 560.572 -225.868 476.099C-278.604 391.98 -313.408 296.083 -375.909 218.18C-417.28 167.428 -475.518 124.668 -537.838 109.835L1121.27 -1312.38Z" fill="url(#paint0_linear_0_331)"/>
<defs>
<linearGradient id="paint0_linear_0_331" x1="-240.806" y1="146.618" x2="1982.04" y2="959.964" gradientUnits="userSpaceOnUse">
<stop stop-color="#6F58E3"/>
<stop offset="1" stop-color="#BB6BD9"/>
</linearGradient>
</defs>
</svg>
