<svg width="1596" height="822" viewBox="0 0 1596 822" fill="none" xmlns="http://www.w3.org/2000/svg">
<path d="M2427.72 -1306L2427.72 204.894C2290.48 278.713 2121.34 304.438 1977.29 245.432C1886.5 208.302 1802.1 138.392 1704.15 144.041C1622.13 148.975 1551.76 208.574 1506.61 277.455C1461.46 346.337 1435.24 425.566 1398.97 499.77C1342.1 615.336 1256.65 720.201 1141.9 778.334C1027.14 836.467 880.609 839.94 774.313 767.966C659.2 689.9 592.848 531.238 455.129 510.628C300.958 487.597 173.311 658.089 17.6013 650.027C-81.8254 644.73 -162.909 566.951 -215.231 482.477C-267.967 398.359 -302.771 302.462 -365.272 224.559C-406.643 173.807 -464.881 131.046 -527.201 116.214L-527.2 -1306L2427.72 -1306Z" fill="url(#paint0_linear_0_331)"/>
<defs>
<linearGradient id="paint0_linear_0_331" x1="-783.76" y1="-636.588" x2="2623.67" y2="505.937" gradientUnits="userSpaceOnUse">
<stop stop-color="#6F58E3"/>
<stop offset="1" stop-color="#BB6BD9"/>
</linearGradient>
</defs>
</svg>
