<svg aria-hidden="true" style="position: absolute; width: 0; height: 0; overflow: hidden;" version="1.1" xmlns="http://www.w3.org/2000/svg" xmlns:xlink="http://www.w3.org/1999/xlink">
<defs>
<symbol id="facebook-icon" viewBox="0 0 32 32">
<path d="M22.987 17.941l0.817-5.369h-5.194v-3.502c0-1.517 0.7-2.918 3.035-2.918h2.393v-4.61c0 0-2.159-0.409-4.202-0.409-4.26 0-7.061 2.626-7.061 7.295v4.143h-4.785v5.369h4.785v13.072h5.836v-13.072h4.377z"></path>
</symbol>

<symbol id="twitter-icon" viewBox="0 0 32 32">
<path d="M28.365 9.727c1.167-0.875 2.218-1.926 3.035-3.151-1.050 0.467-2.276 0.817-3.501 0.934 1.284-0.759 2.218-1.926 2.684-3.385-1.167 0.7-2.509 1.226-3.852 1.517-1.167-1.226-2.743-1.926-4.494-1.926-3.385 0-6.128 2.743-6.128 6.128 0 0.467 0.058 0.934 0.175 1.401-5.077-0.292-9.629-2.743-12.664-6.42-0.525 0.875-0.817 1.926-0.817 3.093 0 2.101 1.050 3.968 2.743 5.077-0.992-0.058-1.984-0.292-2.801-0.759v0.058c0 2.976 2.101 5.427 4.902 6.011-0.467 0.117-1.050 0.233-1.576 0.233-0.409 0-0.759-0.058-1.167-0.117 0.759 2.451 3.035 4.202 5.719 4.26-2.101 1.634-4.727 2.626-7.587 2.626-0.525 0-0.992-0.058-1.459-0.117 2.685 1.751 5.894 2.743 9.396 2.743 11.263 0 17.391-9.279 17.391-17.391 0-0.292 0-0.525 0-0.817z"></path>
</symbol>


<symbol id="google-icon1" viewBox="0 0 32 32">
<path d="M19.436 14.436h-9.173v3.326h5.494c-0.202 1.411-1.663 4.183-5.494 4.183-3.276 0-5.998-2.722-5.998-6.149 0-3.377 2.722-6.099 5.998-6.099 1.915 0 3.175 0.806 3.881 1.512l2.621-2.52c-1.714-1.613-3.881-2.57-6.502-2.57-5.343 0-9.677 4.335-9.677 9.677 0 5.393 4.335 9.677 9.677 9.677 5.595 0 9.324-3.881 9.324-9.425 0-0.655-0.101-1.109-0.151-1.613zM28.76 14.738v-2.772h-2.823v2.772h-2.822v2.822h2.822v2.823h2.823v-2.823h2.822v-2.822h-2.822z"></path>
</symbol>
<symbol id="google-icon" viewBox="0 0 22 14">
<path d="M13.3623 5.92466H7.05582V8.21161H10.8328C10.6942 9.18184 9.68928 11.0876 7.05582 11.0876C4.80352 11.0876 2.93237 9.21649 2.93237 6.86023C2.93237 4.53863 4.80352 2.66748 7.05582 2.66748C8.37255 2.66748 9.23882 3.2219 9.72393 3.70701L11.5258 1.97447C10.3476 0.865641 8.85766 0.207275 7.05582 0.207275C3.38283 0.207275 0.402863 3.18725 0.402863 6.86023C0.402863 10.5679 3.38283 13.5132 7.05582 13.5132C10.9021 13.5132 13.4662 10.8451 13.4662 7.03349C13.4662 6.58302 13.3969 6.27117 13.3623 5.92466ZM19.7727 6.13256V4.22677H17.8322V6.13256H15.8918V8.07301H17.8322V10.0135H19.7727V8.07301H21.7131V6.13256H19.7727Z"></path>
</symbol>

<symbol id="linkedin-icon" viewBox="0 0 32 32">
<path d="M8.295 30.925v-19.502h-6.066v19.502h6.066zM5.229 8.814c1.957 0 3.522-1.631 3.522-3.587 0-1.892-1.565-3.457-3.522-3.457-1.892 0-3.457 1.565-3.457 3.457 0 1.957 1.565 3.587 3.457 3.587zM30.928 30.925h0.065v-10.697c0-5.218-1.174-9.262-7.305-9.262-2.935 0-4.892 1.631-5.74 3.131h-0.065v-2.674h-5.805v19.502h6.066v-9.653c0-2.544 0.457-4.957 3.587-4.957s3.196 2.87 3.196 5.153v9.458h6.001z"></path>
</symbol>
<symbol id="events-icon" viewBox="0 0 36 32">
<path d="M16.9 13.085h-8.978c-1.286 0-2.332 1.046-2.332 2.332v6.193c0 1.286 1.046 2.332 2.332 2.332h8.978c1.286 0 2.332-1.046 2.332-2.332v-6.193c0-1.286-1.046-2.332-2.332-2.332zM17.841 21.611c0 0.518-0.422 0.94-0.94 0.94h-8.978c-0.518 0-0.94-0.422-0.94-0.94v-6.193c0-0.518 0.422-0.94 0.94-0.94h8.978c0.518 0 0.94 0.422 0.94 0.94v6.193z"></path>
<path d="M13.682 17.911l-1.848-1.067c-0.215-0.124-0.481-0.124-0.696 0s-0.348 0.354-0.348 0.603v2.134c0 0.249 0.133 0.478 0.348 0.603 0.108 0.062 0.228 0.093 0.348 0.093s0.24-0.031 0.348-0.093l1.848-1.067c0.215-0.124 0.348-0.354 0.348-0.603s-0.133-0.478-0.348-0.603z"></path>
<path d="M35.262 4.603l-8.692-4.524c-0.201-0.105-0.441-0.105-0.643 0l-8.692 4.524c-0.23 0.12-0.375 0.358-0.375 0.617s0.144 0.497 0.375 0.617l3.347 1.742v1.469h-13.97c-2.571 0-4.663 2.092-4.663 4.663v12.876h-1.253c-0.384 0-0.696 0.312-0.696 0.696 0 2.533 2.061 4.594 4.594 4.594h22.69c2.533 0 4.594-2.061 4.594-4.594 0-0.384-0.312-0.696-0.696-0.696h-1.253v-12.876c0-0.098-0.004-0.195-0.010-0.292l1.572-0.668c0.257-0.109 0.424-0.361 0.424-0.641v-4.531l2.329-1.212v4.26c0 0.384 0.312 0.696 0.696 0.696s0.696-0.312 0.696-0.696v-5.407c0-0.26-0.144-0.498-0.375-0.617zM28.537 26.588h-9.466c-0.384 0-0.696 0.312-0.696 0.696s0.312 0.696 0.696 0.696h11.339c-0.319 1.432-1.599 2.506-3.126 2.506h-22.69c-1.526 0-2.807-1.074-3.125-2.506h11.338c0.384 0 0.696-0.312 0.696-0.696s-0.312-0.696-0.696-0.696h-9.466v-12.876c0-1.804 1.468-3.271 3.271-3.271h13.97v1.67c0 0.279 0.167 0.531 0.424 0.641l4.971 2.111c0.087 0.037 0.18 0.055 0.272 0.055s0.185-0.018 0.272-0.055l2.016-0.857v12.582zM30.523 11.65l-4.274 1.816-4.274-1.816v-3.346l3.953 2.058c0.101 0.052 0.211 0.079 0.321 0.079s0.221-0.026 0.321-0.079l3.953-2.058v3.346zM26.248 8.96l-7.184-3.739 7.184-3.74 7.184 3.74-7.184 3.739z"></path>
<path d="M25.755 4.728c-0.129 0.129-0.204 0.309-0.204 0.492s0.074 0.363 0.204 0.492c0.129 0.129 0.309 0.204 0.492 0.204s0.363-0.074 0.492-0.204c0.129-0.129 0.204-0.309 0.204-0.492s-0.074-0.363-0.204-0.492c-0.129-0.129-0.308-0.204-0.492-0.204s-0.363 0.074-0.492 0.204z"></path>
<path d="M25.87 22.551h-3.805c-0.384 0-0.696 0.312-0.696 0.696s0.312 0.696 0.696 0.696h3.805c0.384 0 0.696-0.312 0.696-0.696s-0.312-0.696-0.696-0.696z"></path>
<path d="M25.87 19.21h-3.805c-0.384 0-0.696 0.312-0.696 0.696s0.312 0.696 0.696 0.696h3.805c0.384 0 0.696-0.312 0.696-0.696s-0.312-0.696-0.696-0.696z"></path>
<path d="M15.935 26.588c-0.183 0-0.363 0.074-0.492 0.204s-0.204 0.308-0.204 0.492c0 0.183 0.074 0.363 0.204 0.492s0.309 0.204 0.492 0.204 0.363-0.075 0.492-0.204c0.13-0.129 0.204-0.309 0.204-0.492s-0.074-0.363-0.204-0.492c-0.129-0.13-0.309-0.204-0.492-0.204z"></path>
</symbol>
<symbol id="feature-icon" viewBox="0 0 36 32">
<path d="M16.785 13.125h-8.862c-1.27 0-2.302 1.033-2.302 2.302v6.114c0 1.27 1.033 2.302 2.302 2.302h8.862c1.27 0 2.302-1.033 2.302-2.302v-6.114c0-1.27-1.033-2.302-2.302-2.302v0zM17.713 21.541c0 0.512-0.416 0.928-0.928 0.928h-8.862c-0.512 0-0.928-0.416-0.928-0.928v-6.114c0-0.512 0.416-0.928 0.928-0.928h8.862c0.512 0 0.928 0.416 0.928 0.928v6.114z"></path>
<path d="M13.61 17.887l-1.825-1.053c-0.213-0.123-0.475-0.123-0.687 0s-0.344 0.35-0.344 0.595v2.107c0 0.245 0.131 0.472 0.344 0.595 0.106 0.061 0.225 0.092 0.344 0.092s0.237-0.031 0.344-0.092l1.825-1.053c0.213-0.123 0.344-0.35 0.344-0.595s-0.131-0.472-0.344-0.595v0z"></path>
<path d="M34.914 4.749l-8.58-4.466c-0.199-0.103-0.436-0.103-0.635 0l-8.58 4.466c-0.227 0.118-0.37 0.353-0.37 0.609s0.143 0.491 0.37 0.609l3.304 1.72v1.45h-13.791c-2.538 0-4.604 2.065-4.604 4.604v12.711h-1.237c-0.379 0-0.687 0.308-0.687 0.687 0 2.501 2.034 4.535 4.535 4.535h22.399c2.501 0 4.535-2.034 4.535-4.535 0-0.379-0.308-0.687-0.687-0.687h-1.237v-12.711c0-0.096-0.004-0.193-0.010-0.289l1.552-0.659c0.254-0.108 0.419-0.357 0.419-0.632v-4.473l2.299-1.197v4.205c0 0.379 0.308 0.687 0.687 0.687s0.687-0.308 0.687-0.687v-5.337c0-0.256-0.143-0.491-0.37-0.609v0zM28.275 26.453h-9.345c-0.379 0-0.687 0.308-0.687 0.687s0.308 0.687 0.687 0.687h11.193c-0.315 1.413-1.579 2.473-3.085 2.473h-22.399c-1.507 0-2.771-1.060-3.085-2.473h11.193c0.379 0 0.687-0.308 0.687-0.687s-0.308-0.687-0.687-0.687h-9.345v-12.711c0-1.781 1.449-3.229 3.229-3.229h13.791v1.649c0 0.276 0.165 0.525 0.419 0.632l4.907 2.084c0.086 0.036 0.177 0.055 0.269 0.055s0.183-0.018 0.269-0.055l1.991-0.845v12.421zM30.236 11.707l-4.22 1.792-4.22-1.792v-3.303l3.902 2.031c0.099 0.052 0.208 0.078 0.317 0.078s0.218-0.026 0.317-0.078l3.902-2.031v3.303zM26.016 9.050l-7.092-3.691 7.092-3.692 7.092 3.692-7.092 3.691z"></path>
<path d="M25.53 4.874c-0.128 0.128-0.201 0.305-0.201 0.486s0.073 0.358 0.201 0.486c0.128 0.128 0.305 0.201 0.486 0.201s0.358-0.074 0.486-0.201c0.128-0.128 0.201-0.305 0.201-0.486s-0.073-0.358-0.201-0.486c-0.128-0.128-0.304-0.201-0.486-0.201s-0.358 0.074-0.486 0.201z"></path>
<path d="M25.646 22.467h-3.756c-0.379 0-0.687 0.308-0.687 0.687s0.308 0.687 0.687 0.687h3.756c0.379 0 0.687-0.308 0.687-0.687s-0.308-0.687-0.687-0.687v0z"></path>
<path d="M25.646 19.169h-3.756c-0.379 0-0.687 0.308-0.687 0.687s0.308 0.687 0.687 0.687h3.756c0.379 0 0.687-0.308 0.687-0.687s-0.308-0.687-0.687-0.687v0z"></path>
<path d="M15.838 26.453c-0.181 0-0.358 0.073-0.486 0.201s-0.201 0.304-0.201 0.486c0 0.181 0.073 0.358 0.201 0.486s0.305 0.201 0.486 0.201 0.358-0.073 0.486-0.201c0.128-0.128 0.201-0.305 0.201-0.486s-0.073-0.358-0.201-0.486c-0.128-0.128-0.305-0.201-0.486-0.201z"></path>
</symbol>
<symbol id="feature-icon-teal" viewBox="0 0 32 32">
<path fill="#00928d" style="fill: var(--color2, #00928d)" d="M11.243 6.487h9.514c0.716 0 1.297 0.581 1.297 1.297v9.514c0 0.716-0.581 1.297-1.297 1.297h-9.514c-0.716 0-1.297-0.581-1.297-1.297v-9.514c0-0.716 0.581-1.297 1.297-1.297z"></path>
<path fill="#fff" style="fill: var(--color1, #fff)" d="M15.911 12.074h-1.437c-0.206 0-0.373 0.167-0.373 0.373v0.991c0 0.206 0.167 0.373 0.373 0.373h1.437c0.206 0 0.373-0.167 0.373-0.373v-0.991c0-0.206-0.167-0.373-0.373-0.373zM16.061 13.439c0 0.083-0.068 0.15-0.15 0.15h-1.437c-0.083 0-0.15-0.068-0.15-0.15v-0.991c0-0.083 0.068-0.15 0.15-0.15h1.437c0.083 0 0.15 0.068 0.15 0.15v0.991z"></path>
<path fill="#fff" style="fill: var(--color1, #fff)" d="M15.396 12.847l-0.296-0.171c-0.034-0.020-0.077-0.020-0.111 0s-0.056 0.057-0.056 0.096v0.342c0 0.040 0.021 0.077 0.056 0.097 0.017 0.010 0.036 0.015 0.056 0.015s0.038-0.005 0.056-0.015l0.296-0.171c0.034-0.020 0.056-0.057 0.056-0.097s-0.021-0.077-0.056-0.097z"></path>
<path fill="#fff" style="fill: var(--color1, #fff)" d="M18.851 10.716l-1.391-0.724c-0.032-0.017-0.071-0.017-0.103 0l-1.391 0.724c-0.037 0.019-0.060 0.057-0.060 0.099s0.023 0.080 0.060 0.099l0.536 0.279v0.235h-2.236c-0.412 0-0.747 0.335-0.747 0.746v2.061h-0.201c-0.062 0-0.111 0.050-0.111 0.111 0 0.405 0.33 0.735 0.735 0.735h3.632c0.405 0 0.735-0.33 0.735-0.735 0-0.062-0.050-0.111-0.111-0.111h-0.201v-2.061c0-0.016-0.001-0.031-0.002-0.047l0.252-0.107c0.041-0.017 0.068-0.058 0.068-0.103v-0.725l0.373-0.194v0.682c0 0.062 0.050 0.111 0.111 0.111s0.111-0.050 0.111-0.111v-0.866c0-0.042-0.023-0.080-0.060-0.099zM17.774 14.236h-1.515c-0.062 0-0.111 0.050-0.111 0.111s0.050 0.111 0.111 0.111h1.815c-0.051 0.229-0.256 0.401-0.5 0.401h-3.632c-0.244 0-0.449-0.172-0.5-0.401h1.815c0.062 0 0.111-0.050 0.111-0.111s-0.050-0.111-0.111-0.111h-1.515v-2.061c0-0.289 0.235-0.524 0.524-0.524h2.236v0.267c0 0.045 0.027 0.085 0.068 0.103l0.796 0.338c0.014 0.006 0.029 0.009 0.044 0.009s0.030-0.003 0.044-0.009l0.323-0.137v2.014zM18.092 11.844l-0.684 0.291-0.684-0.291v-0.536l0.633 0.329c0.016 0.008 0.034 0.013 0.051 0.013s0.035-0.004 0.051-0.013l0.633-0.329v0.536zM17.408 11.414l-1.15-0.599 1.15-0.599 1.15 0.599-1.15 0.599z"></path>
<path fill="#fff" style="fill: var(--color1, #fff)" d="M17.329 10.736c-0.021 0.021-0.033 0.049-0.033 0.079s0.012 0.058 0.033 0.079c0.021 0.021 0.049 0.033 0.079 0.033s0.058-0.012 0.079-0.033c0.021-0.021 0.033-0.049 0.033-0.079s-0.012-0.058-0.033-0.079c-0.021-0.021-0.049-0.033-0.079-0.033s-0.058 0.012-0.079 0.033z"></path>
<path fill="#fff" style="fill: var(--color1, #fff)" d="M17.348 13.589h-0.609c-0.061 0-0.111 0.050-0.111 0.111s0.050 0.111 0.111 0.111h0.609c0.061 0 0.111-0.050 0.111-0.111s-0.050-0.111-0.111-0.111z"></path>
<path fill="#fff" style="fill: var(--color1, #fff)" d="M17.348 13.054h-0.609c-0.061 0-0.111 0.050-0.111 0.111s0.050 0.111 0.111 0.111h0.609c0.061 0 0.111-0.050 0.111-0.111s-0.050-0.111-0.111-0.111z"></path>
<path fill="#fff" style="fill: var(--color1, #fff)" d="M15.758 14.236c-0.029 0-0.058 0.012-0.079 0.033s-0.033 0.049-0.033 0.079c0 0.029 0.012 0.058 0.033 0.079s0.049 0.033 0.079 0.033 0.058-0.012 0.079-0.033c0.021-0.021 0.033-0.049 0.033-0.079s-0.012-0.058-0.033-0.079c-0.021-0.021-0.049-0.033-0.079-0.033z"></path>
</symbol>
<symbol id="feature-icon-pink" viewBox="0 0 32 32">
<path fill="#fea481" style="fill: var(--color3, #fea481)" d="M11.243 6.487h9.514c0.716 0 1.297 0.581 1.297 1.297v9.514c0 0.716-0.581 1.297-1.297 1.297h-9.514c-0.716 0-1.297-0.581-1.297-1.297v-9.514c0-0.716 0.581-1.297 1.297-1.297z"></path>
<path fill="#fff" style="fill: var(--color1, #fff)" d="M15.911 12.074h-1.437c-0.206 0-0.373 0.167-0.373 0.373v0.991c0 0.206 0.167 0.373 0.373 0.373h1.437c0.206 0 0.373-0.167 0.373-0.373v-0.991c0-0.206-0.167-0.373-0.373-0.373zM16.061 13.439c0 0.083-0.068 0.15-0.15 0.15h-1.437c-0.083 0-0.15-0.068-0.15-0.15v-0.991c0-0.083 0.068-0.15 0.15-0.15h1.437c0.083 0 0.15 0.068 0.15 0.15v0.991z"></path>
<path fill="#fff" style="fill: var(--color1, #fff)" d="M15.396 12.847l-0.296-0.171c-0.034-0.020-0.077-0.020-0.111 0s-0.056 0.057-0.056 0.096v0.342c0 0.040 0.021 0.077 0.056 0.097 0.017 0.010 0.036 0.015 0.056 0.015s0.038-0.005 0.056-0.015l0.296-0.171c0.034-0.020 0.056-0.057 0.056-0.097s-0.021-0.077-0.056-0.097z"></path>
<path fill="#fff" style="fill: var(--color1, #fff)" d="M18.851 10.716l-1.391-0.724c-0.032-0.017-0.071-0.017-0.103 0l-1.391 0.724c-0.037 0.019-0.060 0.057-0.060 0.099s0.023 0.080 0.060 0.099l0.536 0.279v0.235h-2.236c-0.412 0-0.747 0.335-0.747 0.746v2.061h-0.201c-0.062 0-0.111 0.050-0.111 0.111 0 0.405 0.33 0.735 0.735 0.735h3.632c0.405 0 0.735-0.33 0.735-0.735 0-0.062-0.050-0.111-0.111-0.111h-0.201v-2.061c0-0.016-0.001-0.031-0.002-0.047l0.252-0.107c0.041-0.017 0.068-0.058 0.068-0.103v-0.725l0.373-0.194v0.682c0 0.062 0.050 0.111 0.111 0.111s0.111-0.050 0.111-0.111v-0.866c0-0.042-0.023-0.080-0.060-0.099zM17.774 14.236h-1.515c-0.062 0-0.111 0.050-0.111 0.111s0.050 0.111 0.111 0.111h1.815c-0.051 0.229-0.256 0.401-0.5 0.401h-3.632c-0.244 0-0.449-0.172-0.5-0.401h1.815c0.062 0 0.111-0.050 0.111-0.111s-0.050-0.111-0.111-0.111h-1.515v-2.061c0-0.289 0.235-0.524 0.524-0.524h2.236v0.267c0 0.045 0.027 0.085 0.068 0.103l0.796 0.338c0.014 0.006 0.029 0.009 0.044 0.009s0.030-0.003 0.044-0.009l0.323-0.137v2.014zM18.092 11.844l-0.684 0.291-0.684-0.291v-0.536l0.633 0.329c0.016 0.008 0.034 0.013 0.051 0.013s0.035-0.004 0.051-0.013l0.633-0.329v0.536zM17.408 11.414l-1.15-0.599 1.15-0.599 1.15 0.599-1.15 0.599z"></path>
<path fill="#fff" style="fill: var(--color1, #fff)" d="M17.329 10.736c-0.021 0.021-0.033 0.049-0.033 0.079s0.012 0.058 0.033 0.079c0.021 0.021 0.049 0.033 0.079 0.033s0.058-0.012 0.079-0.033c0.021-0.021 0.033-0.049 0.033-0.079s-0.012-0.058-0.033-0.079c-0.021-0.021-0.049-0.033-0.079-0.033s-0.058 0.012-0.079 0.033z"></path>
<path fill="#fff" style="fill: var(--color1, #fff)" d="M17.348 13.589h-0.609c-0.061 0-0.111 0.050-0.111 0.111s0.050 0.111 0.111 0.111h0.609c0.061 0 0.111-0.050 0.111-0.111s-0.050-0.111-0.111-0.111z"></path>
<path fill="#fff" style="fill: var(--color1, #fff)" d="M17.348 13.054h-0.609c-0.061 0-0.111 0.050-0.111 0.111s0.050 0.111 0.111 0.111h0.609c0.061 0 0.111-0.050 0.111-0.111s-0.050-0.111-0.111-0.111z"></path>
<path fill="#fff" style="fill: var(--color1, #fff)" d="M15.758 14.236c-0.029 0-0.058 0.012-0.079 0.033s-0.033 0.049-0.033 0.079c0 0.029 0.012 0.058 0.033 0.079s0.049 0.033 0.079 0.033 0.058-0.012 0.079-0.033c0.021-0.021 0.033-0.049 0.033-0.079s-0.012-0.058-0.033-0.079c-0.021-0.021-0.049-0.033-0.079-0.033z"></path>
</symbol>
<symbol id="feature-icon-red" viewBox="0 0 32 32">
<path fill="#eb5757" style="fill: var(--color4, #eb5757)" d="M11.243 6.487h9.514c0.716 0 1.297 0.581 1.297 1.297v9.514c0 0.716-0.581 1.297-1.297 1.297h-9.514c-0.716 0-1.297-0.581-1.297-1.297v-9.514c0-0.716 0.581-1.297 1.297-1.297z"></path>
<path fill="#fff" style="fill: var(--color1, #fff)" d="M15.911 12.074h-1.437c-0.206 0-0.373 0.167-0.373 0.373v0.991c0 0.206 0.167 0.373 0.373 0.373h1.437c0.206 0 0.373-0.167 0.373-0.373v-0.991c0-0.206-0.167-0.373-0.373-0.373zM16.061 13.439c0 0.083-0.068 0.15-0.15 0.15h-1.437c-0.083 0-0.15-0.068-0.15-0.15v-0.991c0-0.083 0.068-0.15 0.15-0.15h1.437c0.083 0 0.15 0.068 0.15 0.15v0.991z"></path>
<path fill="#fff" style="fill: var(--color1, #fff)" d="M15.396 12.847l-0.296-0.171c-0.034-0.020-0.077-0.020-0.111 0s-0.056 0.057-0.056 0.097v0.342c0 0.040 0.021 0.077 0.056 0.096 0.017 0.010 0.036 0.015 0.056 0.015s0.038-0.005 0.056-0.015l0.296-0.171c0.034-0.020 0.056-0.057 0.056-0.097s-0.021-0.077-0.056-0.097z"></path>
<path fill="#fff" style="fill: var(--color1, #fff)" d="M18.851 10.716l-1.391-0.724c-0.032-0.017-0.071-0.017-0.103 0l-1.391 0.724c-0.037 0.019-0.060 0.057-0.060 0.099s0.023 0.080 0.060 0.099l0.536 0.279v0.235h-2.236c-0.412 0-0.747 0.335-0.747 0.746v2.061h-0.201c-0.062 0-0.111 0.050-0.111 0.111 0 0.405 0.33 0.735 0.735 0.735h3.632c0.405 0 0.735-0.33 0.735-0.735 0-0.062-0.050-0.111-0.111-0.111h-0.201v-2.061c0-0.016-0.001-0.031-0.002-0.047l0.252-0.107c0.041-0.017 0.068-0.058 0.068-0.103v-0.725l0.373-0.194v0.682c0 0.062 0.050 0.111 0.111 0.111s0.111-0.050 0.111-0.111v-0.866c0-0.042-0.023-0.080-0.060-0.099zM17.774 14.236h-1.515c-0.062 0-0.111 0.050-0.111 0.111s0.050 0.111 0.111 0.111h1.815c-0.051 0.229-0.256 0.401-0.5 0.401h-3.632c-0.244 0-0.449-0.172-0.5-0.401h1.815c0.062 0 0.111-0.050 0.111-0.111s-0.050-0.111-0.111-0.111h-1.515v-2.061c0-0.289 0.235-0.524 0.524-0.524h2.236v0.267c0 0.045 0.027 0.085 0.068 0.103l0.796 0.338c0.014 0.006 0.029 0.009 0.044 0.009s0.030-0.003 0.044-0.009l0.323-0.137v2.014zM18.092 11.844l-0.684 0.291-0.684-0.291v-0.536l0.633 0.329c0.016 0.008 0.034 0.013 0.051 0.013s0.035-0.004 0.051-0.013l0.633-0.329v0.536zM17.408 11.414l-1.15-0.599 1.15-0.599 1.15 0.599-1.15 0.599z"></path>
<path fill="#fff" style="fill: var(--color1, #fff)" d="M17.329 10.736c-0.021 0.021-0.033 0.049-0.033 0.079s0.012 0.058 0.033 0.079c0.021 0.021 0.049 0.033 0.079 0.033s0.058-0.012 0.079-0.033c0.021-0.021 0.033-0.049 0.033-0.079s-0.012-0.058-0.033-0.079c-0.021-0.021-0.049-0.033-0.079-0.033s-0.058 0.012-0.079 0.033z"></path>
<path fill="#fff" style="fill: var(--color1, #fff)" d="M17.348 13.589h-0.609c-0.061 0-0.111 0.050-0.111 0.111s0.050 0.111 0.111 0.111h0.609c0.061 0 0.111-0.050 0.111-0.111s-0.050-0.111-0.111-0.111z"></path>
<path fill="#fff" style="fill: var(--color1, #fff)" d="M17.348 13.054h-0.609c-0.061 0-0.111 0.050-0.111 0.111s0.050 0.111 0.111 0.111h0.609c0.061 0 0.111-0.050 0.111-0.111s-0.050-0.111-0.111-0.111z"></path>
<path fill="#fff" style="fill: var(--color1, #fff)" d="M15.758 14.236c-0.029 0-0.058 0.012-0.079 0.033s-0.033 0.049-0.033 0.079c0 0.029 0.012 0.058 0.033 0.079s0.049 0.033 0.079 0.033 0.058-0.012 0.079-0.033c0.021-0.021 0.033-0.049 0.033-0.079s-0.012-0.058-0.033-0.079c-0.021-0.021-0.049-0.033-0.079-0.033z"></path>
</symbol>
<symbol id="feature-icon-blue" viewBox="0 0 32 32">
<path fill="#56ccf2" style="fill: var(--color5, #56ccf2)" d="M11.243 6.487h9.514c0.716 0 1.297 0.581 1.297 1.297v9.514c0 0.716-0.581 1.297-1.297 1.297h-9.514c-0.716 0-1.297-0.581-1.297-1.297v-9.514c0-0.716 0.581-1.297 1.297-1.297z"></path>
<path fill="#fff" style="fill: var(--color1, #fff)" d="M15.911 12.074h-1.437c-0.206 0-0.373 0.167-0.373 0.373v0.991c0 0.206 0.167 0.373 0.373 0.373h1.437c0.206 0 0.373-0.167 0.373-0.373v-0.991c0-0.206-0.167-0.373-0.373-0.373zM16.061 13.439c0 0.083-0.068 0.15-0.15 0.15h-1.437c-0.083 0-0.15-0.068-0.15-0.15v-0.991c0-0.083 0.068-0.15 0.15-0.15h1.437c0.083 0 0.15 0.068 0.15 0.15v0.991z"></path>
<path fill="#fff" style="fill: var(--color1, #fff)" d="M15.396 12.847l-0.296-0.171c-0.034-0.020-0.077-0.020-0.111 0s-0.056 0.057-0.056 0.096v0.342c0 0.040 0.021 0.077 0.056 0.097 0.017 0.010 0.036 0.015 0.056 0.015s0.038-0.005 0.056-0.015l0.296-0.171c0.034-0.020 0.056-0.057 0.056-0.097s-0.021-0.077-0.056-0.097z"></path>
<path fill="#fff" style="fill: var(--color1, #fff)" d="M18.851 10.716l-1.391-0.724c-0.032-0.017-0.071-0.017-0.103 0l-1.391 0.724c-0.037 0.019-0.060 0.057-0.060 0.099s0.023 0.080 0.060 0.099l0.536 0.279v0.235h-2.236c-0.412 0-0.747 0.335-0.747 0.746v2.061h-0.201c-0.062 0-0.111 0.050-0.111 0.111 0 0.405 0.33 0.735 0.735 0.735h3.632c0.405 0 0.735-0.33 0.735-0.735 0-0.062-0.050-0.111-0.111-0.111h-0.201v-2.061c0-0.016-0.001-0.031-0.002-0.047l0.252-0.107c0.041-0.017 0.068-0.058 0.068-0.103v-0.725l0.373-0.194v0.682c0 0.062 0.050 0.111 0.111 0.111s0.111-0.050 0.111-0.111v-0.866c0-0.042-0.023-0.080-0.060-0.099zM17.774 14.236h-1.515c-0.062 0-0.111 0.050-0.111 0.111s0.050 0.111 0.111 0.111h1.815c-0.051 0.229-0.256 0.401-0.5 0.401h-3.632c-0.244 0-0.449-0.172-0.5-0.401h1.815c0.062 0 0.111-0.050 0.111-0.111s-0.050-0.111-0.111-0.111h-1.515v-2.061c0-0.289 0.235-0.524 0.524-0.524h2.236v0.267c0 0.045 0.027 0.085 0.068 0.103l0.796 0.338c0.014 0.006 0.029 0.009 0.044 0.009s0.030-0.003 0.044-0.009l0.323-0.137v2.014zM18.092 11.844l-0.684 0.291-0.684-0.291v-0.536l0.633 0.329c0.016 0.008 0.034 0.013 0.051 0.013s0.035-0.004 0.051-0.013l0.633-0.329v0.536zM17.408 11.414l-1.15-0.599 1.15-0.599 1.15 0.599-1.15 0.599z"></path>
<path fill="#fff" style="fill: var(--color1, #fff)" d="M17.329 10.736c-0.021 0.021-0.033 0.049-0.033 0.079s0.012 0.058 0.033 0.079c0.021 0.021 0.049 0.033 0.079 0.033s0.058-0.012 0.079-0.033c0.021-0.021 0.033-0.049 0.033-0.079s-0.012-0.058-0.033-0.079c-0.021-0.021-0.049-0.033-0.079-0.033s-0.058 0.012-0.079 0.033z"></path>
<path fill="#fff" style="fill: var(--color1, #fff)" d="M17.348 13.589h-0.609c-0.061 0-0.111 0.050-0.111 0.111s0.050 0.111 0.111 0.111h0.609c0.061 0 0.111-0.050 0.111-0.111s-0.050-0.111-0.111-0.111z"></path>
<path fill="#fff" style="fill: var(--color1, #fff)" d="M17.348 13.054h-0.609c-0.061 0-0.111 0.050-0.111 0.111s0.050 0.111 0.111 0.111h0.609c0.061 0 0.111-0.050 0.111-0.111s-0.050-0.111-0.111-0.111z"></path>
<path fill="#fff" style="fill: var(--color1, #fff)" d="M15.758 14.236c-0.029 0-0.058 0.012-0.079 0.033s-0.033 0.049-0.033 0.079c0 0.029 0.012 0.058 0.033 0.079s0.049 0.033 0.079 0.033 0.058-0.012 0.079-0.033c0.021-0.021 0.033-0.049 0.033-0.079s-0.012-0.058-0.033-0.079c-0.021-0.021-0.049-0.033-0.079-0.033z"></path>
</symbol>
<symbol id="feature-icon-green" viewBox="0 0 32 32">
<path fill="#1bba54" style="fill: var(--color6, #1bba54)" d="M11.243 6.487h9.514c0.716 0 1.297 0.581 1.297 1.297v9.514c0 0.716-0.581 1.297-1.297 1.297h-9.514c-0.716 0-1.297-0.581-1.297-1.297v-9.514c0-0.716 0.581-1.297 1.297-1.297z"></path>
<path fill="#fff" style="fill: var(--color1, #fff)" d="M15.911 12.074h-1.437c-0.206 0-0.373 0.167-0.373 0.373v0.991c0 0.206 0.167 0.373 0.373 0.373h1.437c0.206 0 0.373-0.167 0.373-0.373v-0.991c0-0.206-0.167-0.373-0.373-0.373zM16.061 13.439c0 0.083-0.068 0.15-0.15 0.15h-1.437c-0.083 0-0.15-0.068-0.15-0.15v-0.991c0-0.083 0.068-0.15 0.15-0.15h1.437c0.083 0 0.15 0.068 0.15 0.15v0.991z"></path>
<path fill="#fff" style="fill: var(--color1, #fff)" d="M15.396 12.847l-0.296-0.171c-0.034-0.020-0.077-0.020-0.111 0s-0.056 0.057-0.056 0.096v0.342c0 0.040 0.021 0.077 0.056 0.097 0.017 0.010 0.036 0.015 0.056 0.015s0.038-0.005 0.056-0.015l0.296-0.171c0.034-0.020 0.056-0.057 0.056-0.097s-0.021-0.077-0.056-0.097z"></path>
<path fill="#fff" style="fill: var(--color1, #fff)" d="M18.851 10.716l-1.391-0.724c-0.032-0.017-0.071-0.017-0.103 0l-1.391 0.724c-0.037 0.019-0.060 0.057-0.060 0.099s0.023 0.080 0.060 0.099l0.536 0.279v0.235h-2.236c-0.412 0-0.747 0.335-0.747 0.746v2.061h-0.201c-0.062 0-0.111 0.050-0.111 0.111 0 0.405 0.33 0.735 0.735 0.735h3.632c0.405 0 0.735-0.33 0.735-0.735 0-0.062-0.050-0.111-0.111-0.111h-0.201v-2.061c0-0.016-0.001-0.031-0.002-0.047l0.252-0.107c0.041-0.017 0.068-0.058 0.068-0.103v-0.725l0.373-0.194v0.682c0 0.062 0.050 0.111 0.111 0.111s0.111-0.050 0.111-0.111v-0.866c0-0.042-0.023-0.080-0.060-0.099zM17.774 14.236h-1.515c-0.062 0-0.111 0.050-0.111 0.111s0.050 0.111 0.111 0.111h1.815c-0.051 0.229-0.256 0.401-0.5 0.401h-3.632c-0.244 0-0.449-0.172-0.5-0.401h1.815c0.062 0 0.111-0.050 0.111-0.111s-0.050-0.111-0.111-0.111h-1.515v-2.061c0-0.289 0.235-0.524 0.524-0.524h2.236v0.267c0 0.045 0.027 0.085 0.068 0.103l0.796 0.338c0.014 0.006 0.029 0.009 0.044 0.009s0.030-0.003 0.044-0.009l0.323-0.137v2.014zM18.092 11.844l-0.684 0.291-0.684-0.291v-0.536l0.633 0.329c0.016 0.008 0.034 0.013 0.051 0.013s0.035-0.004 0.051-0.013l0.633-0.329v0.536zM17.408 11.414l-1.15-0.599 1.15-0.599 1.15 0.599-1.15 0.599z"></path>
<path fill="#fff" style="fill: var(--color1, #fff)" d="M17.329 10.736c-0.021 0.021-0.033 0.049-0.033 0.079s0.012 0.058 0.033 0.079c0.021 0.021 0.049 0.033 0.079 0.033s0.058-0.012 0.079-0.033c0.021-0.021 0.033-0.049 0.033-0.079s-0.012-0.058-0.033-0.079c-0.021-0.021-0.049-0.033-0.079-0.033s-0.058 0.012-0.079 0.033z"></path>
<path fill="#fff" style="fill: var(--color1, #fff)" d="M17.348 13.589h-0.609c-0.061 0-0.111 0.050-0.111 0.111s0.050 0.111 0.111 0.111h0.609c0.061 0 0.111-0.050 0.111-0.111s-0.050-0.111-0.111-0.111z"></path>
<path fill="#fff" style="fill: var(--color1, #fff)" d="M17.348 13.054h-0.609c-0.061 0-0.111 0.050-0.111 0.111s0.050 0.111 0.111 0.111h0.609c0.061 0 0.111-0.050 0.111-0.111s-0.050-0.111-0.111-0.111z"></path>
<path fill="#fff" style="fill: var(--color1, #fff)" d="M15.758 14.236c-0.029 0-0.058 0.012-0.079 0.033s-0.033 0.049-0.033 0.079c0 0.029 0.012 0.058 0.033 0.079s0.049 0.033 0.079 0.033 0.058-0.012 0.079-0.033c0.021-0.021 0.033-0.049 0.033-0.079s-0.012-0.058-0.033-0.079c-0.021-0.021-0.049-0.033-0.079-0.033z"></path>
</symbol>
<symbol id="feature-icon-yellow" viewBox="0 0 32 32">
<path fill="#f2994a" style="fill: var(--color7, #f2994a)" d="M11.243 6.487h9.514c0.716 0 1.297 0.581 1.297 1.297v9.514c0 0.716-0.581 1.297-1.297 1.297h-9.514c-0.716 0-1.297-0.581-1.297-1.297v-9.514c0-0.716 0.581-1.297 1.297-1.297z"></path>
<path fill="#fff" style="fill: var(--color1, #fff)" d="M15.911 12.074h-1.437c-0.206 0-0.373 0.167-0.373 0.373v0.991c0 0.206 0.167 0.373 0.373 0.373h1.437c0.206 0 0.373-0.167 0.373-0.373v-0.991c0-0.206-0.167-0.373-0.373-0.373zM16.061 13.439c0 0.083-0.068 0.15-0.15 0.15h-1.437c-0.083 0-0.15-0.068-0.15-0.15v-0.991c0-0.083 0.068-0.15 0.15-0.15h1.437c0.083 0 0.15 0.068 0.15 0.15v0.991z"></path>
<path fill="#fff" style="fill: var(--color1, #fff)" d="M15.396 12.847l-0.296-0.171c-0.034-0.020-0.077-0.020-0.111 0s-0.056 0.057-0.056 0.097v0.342c0 0.040 0.021 0.077 0.056 0.096 0.017 0.010 0.036 0.015 0.056 0.015s0.038-0.005 0.056-0.015l0.296-0.171c0.034-0.020 0.056-0.057 0.056-0.097s-0.021-0.077-0.056-0.097z"></path>
<path fill="#fff" style="fill: var(--color1, #fff)" d="M18.851 10.716l-1.391-0.724c-0.032-0.017-0.071-0.017-0.103 0l-1.391 0.724c-0.037 0.019-0.060 0.057-0.060 0.099s0.023 0.080 0.060 0.099l0.536 0.279v0.235h-2.236c-0.412 0-0.747 0.335-0.747 0.746v2.061h-0.201c-0.062 0-0.111 0.050-0.111 0.111 0 0.405 0.33 0.735 0.735 0.735h3.632c0.405 0 0.735-0.33 0.735-0.735 0-0.062-0.050-0.111-0.111-0.111h-0.201v-2.061c0-0.016-0.001-0.031-0.002-0.047l0.252-0.107c0.041-0.017 0.068-0.058 0.068-0.103v-0.725l0.373-0.194v0.682c0 0.062 0.050 0.111 0.111 0.111s0.111-0.050 0.111-0.111v-0.866c0-0.042-0.023-0.080-0.060-0.099zM17.774 14.236h-1.515c-0.062 0-0.111 0.050-0.111 0.111s0.050 0.111 0.111 0.111h1.815c-0.051 0.229-0.256 0.401-0.5 0.401h-3.632c-0.244 0-0.449-0.172-0.5-0.401h1.815c0.062 0 0.111-0.050 0.111-0.111s-0.050-0.111-0.111-0.111h-1.515v-2.061c0-0.289 0.235-0.524 0.524-0.524h2.236v0.267c0 0.045 0.027 0.085 0.068 0.103l0.796 0.338c0.014 0.006 0.029 0.009 0.044 0.009s0.030-0.003 0.044-0.009l0.323-0.137v2.014zM18.092 11.844l-0.684 0.291-0.684-0.291v-0.536l0.633 0.329c0.016 0.008 0.034 0.013 0.051 0.013s0.035-0.004 0.051-0.013l0.633-0.329v0.536zM17.408 11.414l-1.15-0.599 1.15-0.599 1.15 0.599-1.15 0.599z"></path>
<path fill="#fff" style="fill: var(--color1, #fff)" d="M17.329 10.736c-0.021 0.021-0.033 0.049-0.033 0.079s0.012 0.058 0.033 0.079c0.021 0.021 0.049 0.033 0.079 0.033s0.058-0.012 0.079-0.033c0.021-0.021 0.033-0.049 0.033-0.079s-0.012-0.058-0.033-0.079c-0.021-0.021-0.049-0.033-0.079-0.033s-0.058 0.012-0.079 0.033z"></path>
<path fill="#fff" style="fill: var(--color1, #fff)" d="M17.348 13.589h-0.609c-0.061 0-0.111 0.050-0.111 0.111s0.050 0.111 0.111 0.111h0.609c0.061 0 0.111-0.050 0.111-0.111s-0.050-0.111-0.111-0.111z"></path>
<path fill="#fff" style="fill: var(--color1, #fff)" d="M17.348 13.054h-0.609c-0.061 0-0.111 0.050-0.111 0.111s0.050 0.111 0.111 0.111h0.609c0.061 0 0.111-0.050 0.111-0.111s-0.050-0.111-0.111-0.111z"></path>
<path fill="#fff" style="fill: var(--color1, #fff)" d="M15.758 14.236c-0.029 0-0.058 0.012-0.079 0.033s-0.033 0.049-0.033 0.079c0 0.029 0.012 0.058 0.033 0.079s0.049 0.033 0.079 0.033 0.058-0.012 0.079-0.033c0.021-0.021 0.033-0.049 0.033-0.079s-0.012-0.058-0.033-0.079c-0.021-0.021-0.049-0.033-0.079-0.033z"></path>
</symbol>
<symbol id="event-icon-yellow" viewBox="0 0 32 32">
<path fill="#f2994a" style="fill: var(--color7, #f2994a)" d="M8.49 4.898h15.020c0.541 0 0.98 0.439 0.98 0.98v15.020c0 0.541-0.439 0.98-0.98 0.98h-15.020c-0.541 0-0.98-0.439-0.98-0.98v-15.020c0-0.541 0.439-0.98 0.98-0.98z"></path>
<path fill="#fff" style="fill: var(--color1, #fff)" d="M15.876 12.733h-2.015c-0.289 0-0.524 0.235-0.524 0.524v1.39c0 0.289 0.235 0.524 0.524 0.524h2.015c0.289 0 0.524-0.235 0.524-0.524v-1.39c0-0.289-0.235-0.524-0.524-0.524zM16.087 14.647c0 0.116-0.095 0.211-0.211 0.211h-2.015c-0.116 0-0.211-0.095-0.211-0.211v-1.39c0-0.116 0.095-0.211 0.211-0.211h2.015c0.116 0 0.211 0.095 0.211 0.211v1.39z"></path>
<path fill="#fff" style="fill: var(--color1, #fff)" d="M15.153 13.817l-0.415-0.24c-0.048-0.028-0.108-0.028-0.156 0s-0.078 0.079-0.078 0.135v0.479c0 0.056 0.030 0.107 0.078 0.135 0.024 0.014 0.051 0.021 0.078 0.021s0.054-0.007 0.078-0.021l0.415-0.24c0.048-0.028 0.078-0.079 0.078-0.135s-0.030-0.107-0.078-0.135z"></path>
<path fill="#fff" style="fill: var(--color1, #fff)" d="M19.998 10.829l-1.951-1.016c-0.045-0.024-0.099-0.024-0.144 0l-1.951 1.016c-0.052 0.027-0.084 0.080-0.084 0.139s0.032 0.112 0.084 0.139l0.751 0.391v0.33h-3.136c-0.577 0-1.047 0.47-1.047 1.047v2.891h-0.281c-0.086 0-0.156 0.070-0.156 0.156 0 0.569 0.463 1.031 1.031 1.031h5.094c0.569 0 1.031-0.463 1.031-1.031 0-0.086-0.070-0.156-0.156-0.156h-0.281v-2.891c0-0.022-0.001-0.044-0.002-0.066l0.353-0.15c0.058-0.024 0.095-0.081 0.095-0.144v-1.017l0.523-0.272v0.956c0 0.086 0.070 0.156 0.156 0.156s0.156-0.070 0.156-0.156v-1.214c0-0.058-0.032-0.112-0.084-0.139zM18.488 15.765h-2.125c-0.086 0-0.156 0.070-0.156 0.156s0.070 0.156 0.156 0.156h2.545c-0.072 0.321-0.359 0.563-0.702 0.563h-5.094c-0.343 0-0.63-0.241-0.702-0.563h2.545c0.086 0 0.156-0.070 0.156-0.156s-0.070-0.156-0.156-0.156h-2.125v-2.891c0-0.405 0.329-0.734 0.734-0.734h3.136v0.375c0 0.063 0.038 0.119 0.095 0.144l1.116 0.474c0.020 0.008 0.040 0.012 0.061 0.012s0.041-0.004 0.061-0.012l0.453-0.192v2.825zM18.934 12.411l-0.959 0.408-0.96-0.408v-0.751l0.887 0.462c0.023 0.012 0.047 0.018 0.072 0.018s0.049-0.006 0.072-0.018l0.887-0.462v0.751zM17.974 11.807l-1.613-0.839 1.613-0.839 1.613 0.839-1.613 0.839z"></path>
<path fill="#fff" style="fill: var(--color1, #fff)" d="M17.863 10.857c-0.029 0.029-0.046 0.069-0.046 0.11s0.017 0.081 0.046 0.11c0.029 0.029 0.069 0.046 0.111 0.046s0.081-0.017 0.11-0.046c0.029-0.029 0.046-0.069 0.046-0.11s-0.017-0.081-0.046-0.11c-0.029-0.029-0.069-0.046-0.11-0.046s-0.081 0.017-0.111 0.046z"></path>
<path fill="#fff" style="fill: var(--color1, #fff)" d="M17.889 14.858h-0.854c-0.086 0-0.156 0.070-0.156 0.156s0.070 0.156 0.156 0.156h0.854c0.086 0 0.156-0.070 0.156-0.156s-0.070-0.156-0.156-0.156z"></path>
<path fill="#fff" style="fill: var(--color1, #fff)" d="M17.889 14.108h-0.854c-0.086 0-0.156 0.070-0.156 0.156s0.070 0.156 0.156 0.156h0.854c0.086 0 0.156-0.070 0.156-0.156s-0.070-0.156-0.156-0.156z"></path>
<path fill="#fff" style="fill: var(--color1, #fff)" d="M15.659 15.765c-0.041 0-0.081 0.017-0.11 0.046s-0.046 0.069-0.046 0.11c0 0.041 0.017 0.081 0.046 0.11s0.069 0.046 0.11 0.046 0.081-0.017 0.11-0.046c0.029-0.029 0.046-0.069 0.046-0.11s-0.017-0.081-0.046-0.11c-0.029-0.029-0.069-0.046-0.11-0.046z"></path>
</symbol>
<symbol id="event-icon-red" viewBox="0 0 32 32">
<path fill="#eb5757" style="fill: var(--color4, #eb5757)" d="M8.49 4.898h15.020c0.541 0 0.98 0.439 0.98 0.98v15.020c0 0.541-0.439 0.98-0.98 0.98h-15.020c-0.541 0-0.98-0.439-0.98-0.98v-15.020c0-0.541 0.439-0.98 0.98-0.98z"></path>
<path fill="#fff" style="fill: var(--color1, #fff)" d="M15.876 12.733h-2.015c-0.289 0-0.524 0.235-0.524 0.524v1.39c0 0.289 0.235 0.524 0.524 0.524h2.015c0.289 0 0.524-0.235 0.524-0.524v-1.39c0-0.289-0.235-0.524-0.524-0.524zM16.087 14.647c0 0.116-0.095 0.211-0.211 0.211h-2.015c-0.116 0-0.211-0.095-0.211-0.211v-1.39c0-0.116 0.095-0.211 0.211-0.211h2.015c0.116 0 0.211 0.095 0.211 0.211v1.39z"></path>
<path fill="#fff" style="fill: var(--color1, #fff)" d="M15.153 13.817l-0.415-0.24c-0.048-0.028-0.108-0.028-0.156 0s-0.078 0.079-0.078 0.135v0.479c0 0.056 0.030 0.107 0.078 0.135 0.024 0.014 0.051 0.021 0.078 0.021s0.054-0.007 0.078-0.021l0.415-0.24c0.048-0.028 0.078-0.079 0.078-0.135s-0.030-0.107-0.078-0.135z"></path>
<path fill="#fff" style="fill: var(--color1, #fff)" d="M19.998 10.829l-1.951-1.016c-0.045-0.024-0.099-0.024-0.144 0l-1.951 1.016c-0.052 0.027-0.084 0.080-0.084 0.139s0.032 0.112 0.084 0.139l0.751 0.391v0.33h-3.136c-0.577 0-1.047 0.47-1.047 1.047v2.891h-0.281c-0.086 0-0.156 0.070-0.156 0.156 0 0.569 0.463 1.031 1.031 1.031h5.094c0.569 0 1.031-0.463 1.031-1.031 0-0.086-0.070-0.156-0.156-0.156h-0.281v-2.891c0-0.022-0.001-0.044-0.002-0.066l0.353-0.15c0.058-0.024 0.095-0.081 0.095-0.144v-1.017l0.523-0.272v0.956c0 0.086 0.070 0.156 0.156 0.156s0.156-0.070 0.156-0.156v-1.214c0-0.058-0.032-0.112-0.084-0.139zM18.488 15.765h-2.125c-0.086 0-0.156 0.070-0.156 0.156s0.070 0.156 0.156 0.156h2.545c-0.072 0.321-0.359 0.563-0.702 0.563h-5.094c-0.343 0-0.63-0.241-0.702-0.563h2.545c0.086 0 0.156-0.070 0.156-0.156s-0.070-0.156-0.156-0.156h-2.125v-2.891c0-0.405 0.329-0.734 0.734-0.734h3.136v0.375c0 0.063 0.038 0.119 0.095 0.144l1.116 0.474c0.020 0.008 0.040 0.012 0.061 0.012s0.041-0.004 0.061-0.012l0.453-0.192v2.825zM18.934 12.411l-0.959 0.408-0.96-0.408v-0.751l0.887 0.462c0.023 0.012 0.047 0.018 0.072 0.018s0.049-0.006 0.072-0.018l0.887-0.462v0.751zM17.974 11.807l-1.613-0.839 1.613-0.839 1.613 0.839-1.613 0.839z"></path>
<path fill="#fff" style="fill: var(--color1, #fff)" d="M17.863 10.857c-0.029 0.029-0.046 0.069-0.046 0.11s0.017 0.081 0.046 0.11c0.029 0.029 0.069 0.046 0.111 0.046s0.081-0.017 0.11-0.046c0.029-0.029 0.046-0.069 0.046-0.11s-0.017-0.081-0.046-0.11c-0.029-0.029-0.069-0.046-0.11-0.046s-0.081 0.017-0.111 0.046z"></path>
<path fill="#fff" style="fill: var(--color1, #fff)" d="M17.889 14.858h-0.854c-0.086 0-0.156 0.070-0.156 0.156s0.070 0.156 0.156 0.156h0.854c0.086 0 0.156-0.070 0.156-0.156s-0.070-0.156-0.156-0.156z"></path>
<path fill="#fff" style="fill: var(--color1, #fff)" d="M17.889 14.108h-0.854c-0.086 0-0.156 0.070-0.156 0.156s0.070 0.156 0.156 0.156h0.854c0.086 0 0.156-0.070 0.156-0.156s-0.070-0.156-0.156-0.156z"></path>
<path fill="#fff" style="fill: var(--color1, #fff)" d="M15.659 15.765c-0.041 0-0.081 0.017-0.11 0.046s-0.046 0.069-0.046 0.11c0 0.041 0.017 0.081 0.046 0.11s0.069 0.046 0.11 0.046 0.081-0.017 0.11-0.046c0.029-0.029 0.046-0.069 0.046-0.11s-0.017-0.081-0.046-0.11c-0.029-0.029-0.069-0.046-0.11-0.046z"></path>
</symbol>
<symbol id="event-icon-purple" viewBox="0 0 32 32">
<path fill="#6945ec" style="fill: var(--color8, #6945ec)" d="M8.49 4.898h15.020c0.541 0 0.98 0.439 0.98 0.98v15.020c0 0.541-0.439 0.98-0.98 0.98h-15.020c-0.541 0-0.98-0.439-0.98-0.98v-15.020c0-0.541 0.439-0.98 0.98-0.98z"></path>
<path fill="#fff" style="fill: var(--color1, #fff)" d="M15.876 12.733h-2.015c-0.289 0-0.524 0.235-0.524 0.524v1.39c0 0.289 0.235 0.524 0.524 0.524h2.015c0.289 0 0.524-0.235 0.524-0.524v-1.39c0-0.289-0.235-0.524-0.524-0.524v0zM16.087 14.647c0 0.116-0.095 0.211-0.211 0.211h-2.015c-0.116 0-0.211-0.095-0.211-0.211v-1.39c0-0.116 0.095-0.211 0.211-0.211h2.015c0.116 0 0.211 0.095 0.211 0.211v1.39z"></path>
<path fill="#fff" style="fill: var(--color1, #fff)" d="M15.153 13.817l-0.415-0.24c-0.048-0.028-0.108-0.028-0.156 0s-0.078 0.079-0.078 0.135v0.479c0 0.056 0.030 0.107 0.078 0.135 0.024 0.014 0.051 0.021 0.078 0.021s0.054-0.007 0.078-0.021l0.415-0.24c0.048-0.028 0.078-0.079 0.078-0.135s-0.030-0.107-0.078-0.135v0z"></path>
<path fill="#fff" style="fill: var(--color1, #fff)" d="M19.998 10.829l-1.951-1.016c-0.045-0.024-0.099-0.024-0.144 0l-1.951 1.016c-0.052 0.027-0.084 0.080-0.084 0.139s0.032 0.112 0.084 0.139l0.751 0.391v0.33h-3.136c-0.577 0-1.047 0.47-1.047 1.047v2.891h-0.281c-0.086 0-0.156 0.070-0.156 0.156 0 0.569 0.463 1.031 1.031 1.031h5.094c0.569 0 1.031-0.463 1.031-1.031 0-0.086-0.070-0.156-0.156-0.156h-0.281v-2.891c0-0.022-0.001-0.044-0.002-0.066l0.353-0.15c0.058-0.024 0.095-0.081 0.095-0.144v-1.017l0.523-0.272v0.956c0 0.086 0.070 0.156 0.156 0.156s0.156-0.070 0.156-0.156v-1.214c0-0.058-0.032-0.112-0.084-0.139v0zM18.488 15.765h-2.125c-0.086 0-0.156 0.070-0.156 0.156s0.070 0.156 0.156 0.156h2.545c-0.072 0.321-0.359 0.563-0.702 0.563h-5.094c-0.343 0-0.63-0.241-0.702-0.563h2.545c0.086 0 0.156-0.070 0.156-0.156s-0.070-0.156-0.156-0.156h-2.125v-2.891c0-0.405 0.329-0.734 0.734-0.734h3.136v0.375c0 0.063 0.038 0.119 0.095 0.144l1.116 0.474c0.020 0.008 0.040 0.012 0.061 0.012s0.041-0.004 0.061-0.012l0.453-0.192v2.825zM18.934 12.411l-0.959 0.408-0.96-0.408v-0.751l0.887 0.462c0.023 0.012 0.047 0.018 0.072 0.018s0.049-0.006 0.072-0.018l0.887-0.462v0.751zM17.974 11.807l-1.613-0.839 1.613-0.839 1.613 0.839-1.613 0.839z"></path>
<path fill="#fff" style="fill: var(--color1, #fff)" d="M17.863 10.857c-0.029 0.029-0.046 0.069-0.046 0.11s0.017 0.081 0.046 0.11c0.029 0.029 0.069 0.046 0.111 0.046s0.081-0.017 0.11-0.046c0.029-0.029 0.046-0.069 0.046-0.11s-0.017-0.081-0.046-0.11c-0.029-0.029-0.069-0.046-0.11-0.046s-0.081 0.017-0.111 0.046z"></path>
<path fill="#fff" style="fill: var(--color1, #fff)" d="M17.889 14.858h-0.854c-0.086 0-0.156 0.070-0.156 0.156s0.070 0.156 0.156 0.156h0.854c0.086 0 0.156-0.070 0.156-0.156s-0.070-0.156-0.156-0.156v0z"></path>
<path fill="#fff" style="fill: var(--color1, #fff)" d="M17.889 14.108h-0.854c-0.086 0-0.156 0.070-0.156 0.156s0.070 0.156 0.156 0.156h0.854c0.086 0 0.156-0.070 0.156-0.156s-0.070-0.156-0.156-0.156v0z"></path>
<path fill="#fff" style="fill: var(--color1, #fff)" d="M15.659 15.765c-0.041 0-0.081 0.017-0.11 0.046s-0.046 0.069-0.046 0.11c0 0.041 0.017 0.081 0.046 0.11s0.069 0.046 0.11 0.046 0.081-0.017 0.11-0.046c0.029-0.029 0.046-0.069 0.046-0.11s-0.017-0.081-0.046-0.11c-0.029-0.029-0.069-0.046-0.11-0.046z"></path>
</symbol>
<symbol id="orange-point" viewBox="0 0 37 37">
<circle opacity="0.4" cx="18.5" cy="18.5" r="18.5" fill="#F2994A"/>
<circle cx="18.5" cy="18.5" r="9.5" fill="white"/>
</symbol>

<symbol id="green-point" viewBox="0 0 37 37">
<circle opacity="0.4" cx="18.5" cy="18.5" r="18.5" fill="#1BBA54"/>
<circle cx="18.5" cy="18.5" r="9.5" fill="white"/>
</symbol>

<symbol id="blue-point" viewBox="0 0 37 37">
<circle opacity="0.4" cx="18.5" cy="18.5" r="18.5" fill="#57ACE5"/>
<circle cx="18.5" cy="18.5" r="9.5" fill="white"/>
</symbol>

<symbol id="red-point" viewBox="0 0 37 37">
<circle opacity="0.4" cx="18.5" cy="18.5" r="18.5" fill="#EB5757"/>
<circle cx="18.5" cy="18.5" r="9.5" fill="white"/>
</symbol>

<symbol id="pink-point" viewBox="0 0 37 37">
<circle opacity="0.4" cx="18.5" cy="18.5" r="18.5" fill="#FEA481"/>
<circle cx="18.5" cy="18.5" r="9.5" fill="white"/>
</symbol>

<symbol id="dark-blue-point" viewBox="0 0 37 37">
<circle opacity="0.4" cx="18.5" cy="18.5" r="18.5" fill="#269EAE"/>
<circle cx="18.5" cy="18.5" r="9.5" fill="white"/>
</symbol>

<symbol id="cross" viewBox="0 0 40 40"><path d="M29.667 12.88 27.787 11l-7.454 7.453L12.88 11 11 12.88l7.453 7.453L11 27.787l1.88 1.88 7.453-7.454 7.454 7.454 1.88-1.88-7.454-7.454 7.454-7.453Z" /></symbol>
<symbol id="burger" viewBox="0 0 40 40"><path fill-rule="evenodd" clip-rule="evenodd" d="M8 14.667V12h24v2.667H8Zm0 6.666h24v-2.666H8v2.666ZM8 28h24v-2.667H8V28Z" /></symbol>




</defs>
</svg>
