<svg width="77" height="37" fill="none" xmlns="http://www.w3.org/2000/svg"><path d="M13.605 7.318c-.127.189-.191.378-.191.567 0 .82 1.213 1.451 2.683 1.451.702 0 1.34-.126 1.852-.378 3.066 1.766 6.068 3.595 9.134 5.36.958-.882 2.683-1.702 4.918-2.144.256-.504.767-1.009 1.405-1.387L18.971 5.804c-.128-.441-.511-.757-1.022-1.01 2.555-1.197 5.11-2.396 7.6-3.531-.382-.063-.702-.063-1.085-.126-2.427 1.072-4.854 2.081-7.218 3.153v.379c0 .063-.064.063-.064.126-.127.126-.255.19-.383.252-.128.063-.255.063-.32.063h-.319.064c.064 0 .128 0 .256-.063.064 0 .191-.063.32-.126h.191l.128-.126.063-.063v-.505c-.127-.441-.51-.757-.958-.757-.575 0-1.022.505-1.022 1.073-.702.189-1.277.504-1.597.946-.319.063-.702.126-1.021.189C9.39 6.939 6.388 8.327 3.386 9.65l1.597.694 8.622-3.027Zm18.843 3.532-1.022 1.009c-4.151-1.892-8.367-3.784-12.519-5.676a850.325 850.325 0 0 0 13.541 4.667ZM21.334 2.903c1.98-.946 3.641-1.64 3.641-1.64s-1.597.82-3.577 1.703c-1.98.946-3.64 1.64-3.64 1.64s1.596-.82 3.576-1.703Zm-5.43.567h.193c.063 0 .191 0 .255.063.128.064.192.064.256.19.063.063.127.189.191.252s.064.19.064.252v.253-.064c0-.063-.064-.063-.064-.126-.064-.063-.064-.126-.128-.189l-.191-.19-.192-.188c-.064-.063-.128-.063-.191-.126-.064-.064-.128-.064-.192-.127 0 0-.064 0 0 0-.064 0 0 0 0 0Zm-5.556 4.542c.702-.253 1.341-.505 1.98-.694.32-.126.575-.19.894-.316.128-.063.256-.063.383-.126.064 0 .128-.063.192-.063h.128c.191-.252.383-.441.51-.63.129-.19.32-.316.384-.505.192-.252.32-.378.32-.378s-.128.126-.32.441c-.128.126-.255.315-.383.505-.064.126-.128.189-.256.315-.063.063-.063.126-.127.19l-.064.062-.064.063s0 .063-.064.063c-.256.063-.511.19-.767.316-.255.126-.574.189-.83.315-.575.252-1.277.442-1.98.694-3.002 1.072-5.493 1.829-5.493 1.829s2.555-1.01 5.557-2.081Z" fill="#0A0951"/><path d="M68.537 28.447a.487.487 0 0 1-.256.126c-.064.063-.192.063-.255.127-.192.063-.32.126-.447.126-.128 0-.256.063-.384.063h-.766.191c.128 0 .32-.063.575-.126.128-.064.256-.064.384-.127l.383-.189c.255-.126.447-.252.638-.441.256-.316.384-.694.384-1.01 0-.82-.64-1.513-1.661-1.892 3.194-2.018 6.324-4.037 9.517-6.055-.447 0-.958.063-1.405.063-2.81 1.703-5.685 3.406-8.495 5.11-.192-.569-.639-.947-1.214-.947s-1.022.379-1.213.946v.253c0 .063 0 .126.063.252.064.063.064.126.128.189l.192.19a.487.487 0 0 0 .255.125c.064 0 .064.064.128.064s.064 0 .128.063c.064 0 .191.063.255.063h.575s-.064 0-.064.063c-.064.063-.191.063-.32.126h-.51c-.064 0-.128 0-.128-.063-.064 0-.128 0-.128-.063-.127-.063-.191-.063-.319-.126a.496.496 0 0 1-.255-.253.479.479 0 0 1-.128-.315c0-.126-.064-.19-.064-.252 0-.063 0-.19.064-.253v-.063l-14.436-7.443c.064-.189.064-.378.064-.567 0-1.577-2.108-2.902-5.301-3.722-.767-1.577-3.322-2.775-6.324-2.775s-5.557 1.135-6.323 2.775c-3.194.757-5.302 2.145-5.302 3.722 0 .189.064.378.128.567l-14.436 7.317v.063c0 .063 0 .126.064.252 0 .064 0 .19-.064.253 0 .126-.063.189-.127.315-.064.063-.128.19-.256.252-.128.064-.191.127-.32.127-.063 0-.127.063-.127.063-.064 0-.128 0-.128.063h-.511a.492.492 0 0 1-.32-.126c-.063 0-.063 0-.063-.063H11.177c.065 0 .129 0 .256-.064.064 0 .064 0 .128-.063.064 0 .064-.063.128-.063.064-.063.191-.063.255-.126l.192-.19c.064-.062.128-.125.128-.188s.064-.127.064-.253v-.252c-.192-.568-.64-.946-1.214-.946-.575 0-1.022.378-1.214.946-2.81-1.703-5.684-3.406-8.495-5.109-.447 0-.958-.063-1.405-.063 3.194 2.018 6.324 4.037 9.517 6.055-.958.379-1.66 1.072-1.66 1.892 0 .379.127.757.383 1.01.191.189.383.378.638.441l.384.19c.127.062.255.062.383.125.255.064.447.127.575.127h.191-.766c-.128 0-.256 0-.383-.064-.128 0-.32-.063-.447-.126a.486.486 0 0 1-.256-.126c-.128.126-.192.063-.255.063-.064-.063-.128-.063-.192-.126-.128.19-.256.442-.256.694 0 1.01 1.47 1.766 3.258 1.766s3.258-.82 3.258-1.766c0-.19-.064-.442-.192-.63l10.348 5.171 2.107-.63c-3.577-2.145-7.09-4.29-10.667-6.434a8606.922 8606.922 0 0 1 13.67-2.965c-.128.064-.512 1.136-.575 1.325-.192.442-.384.946-.511 1.388-.32.883-.575 1.829-.767 2.775a37.387 37.387 0 0 0-.766 5.361c-.256.253-.447.631-.447 1.01 0 .82.638 1.45 1.469 1.45.83 0 1.469-.63 1.469-1.45 0-.379-.128-.694-.384-.947l-.063-.063a1.335 1.335 0 0 0-.384-.252c-.127-.063-.255-.063-.383-.126-.128 0-.191-.063-.255-.063h-.128.064c.064 0 .128-.063.255-.063.128 0 .256 0 .383.063.064 0 .192.063.256.126v-.063c.064-2.712.703-5.361 1.469-8.01.064-.253.511-2.208 1.022-2.082.511.126.958.252 1.533.378v1.577c0 .694.575 1.262 1.277 1.262h8.623c.703 0 1.342-.568 1.342-1.262v-1.703c.32-.063.639-.126.894-.252.447.252.767 1.83.83 2.018.767 2.586 1.406 5.236 1.47 8.01v.064c.063-.063.191-.063.255-.126.128-.063.32-.063.383-.063.128 0 .192 0 .256.063h.064-.128c-.064 0-.128 0-.256.063-.127 0-.255.063-.383.126s-.255.126-.383.252c0 0-.064 0-.064.063-.192.253-.383.568-.383.946 0 .82.639 1.451 1.469 1.451.83 0 1.469-.63 1.469-1.45 0-.38-.192-.758-.447-1.01a37.372 37.372 0 0 0-.767-5.361 22.453 22.453 0 0 0-.766-2.775c-.128-.442-.32-.946-.511-1.388-.064-.19-.383-1.262-.575-1.325 0 0 8.24 1.767 13.669 2.965-3.577 2.144-7.09 4.289-10.667 6.433l2.108.631 10.922-5.172c-.127.19-.191.379-.191.63 0 1.01 1.469 1.767 3.257 1.767 1.789 0 3.258-.82 3.258-1.766 0-.252-.064-.442-.256-.694 0 .063-.064.063-.127.126Zm2.682-6.812c2.3-1.45 4.28-2.523 4.28-2.523s-1.852 1.262-4.152 2.712a83.608 83.608 0 0 1-4.28 2.523s1.853-1.324 4.152-2.712Zm-5.557 1.703c-.064 0-.064.063-.128.063-.127.063-.255.19-.383.316-.127.126-.255.252-.32.378-.063.063-.063.126-.063.126v.063-.252c0-.063.064-.19.064-.252.064-.063.128-.19.192-.253.063-.063.191-.126.255-.189s.192-.063.255-.063c0 0 .064 0 .128.063 0-.063 0 0 0 0 .064 0 .064 0 0 0 .064 0 0 0 0 0Zm-54.548 0s.064 0 0 0h.192c.064 0 .191 0 .255.063s.192.126.256.19c.063.063.127.189.191.252.128.063.128.189.128.252v.252-.063c0-.063-.064-.063-.064-.126-.064-.126-.191-.252-.32-.378-.127-.127-.255-.253-.383-.316l-.255-.126Zm-5.62-1.514c-2.3-1.45-4.153-2.712-4.153-2.712s1.917 1.073 4.28 2.523c2.3 1.45 4.152 2.712 4.152 2.712s-1.98-1.072-4.28-2.523Zm11.624 5.55c.767.443 1.597.947 2.427 1.452a197.049 197.049 0 0 1 6.707 4.226s-3.066-1.767-6.834-4.037a124.3 124.3 0 0 0-2.428-1.45 9.64 9.64 0 0 0-1.085-.632c-.32-.189-.64-.378-.895-.567a20.962 20.962 0 0 1-1.085-.379c-.32-.126-.575-.189-.83-.315-.448-.19-.704-.252-.704-.252s.256.063.703.189c.256.063.511.19.83.252.32.126.703.19 1.086.379l.958.567a4.86 4.86 0 0 1 1.15.568Zm9.198-8.262-13.222 5.172 13.222-6.56v1.388Zm12.136-9.02c3.45 0 5.62 2.019 6.004 2.397a12.783 12.783 0 0 0-5.94-1.45c-2.874 0-5.046.946-6.004 1.45.32-.378 2.49-2.396 5.94-2.396Zm-6.004 3.848c.064.063.191.126.32.19.319.125.702.378 1.277.567.255.126.575.19.894.315.32.127.703.19 1.022.253l1.15.189c.383.063.83.063 1.277.063.894 0 1.725-.126 2.427-.252.767-.127 1.406-.379 1.917-.568.574-.19.958-.441 1.277-.568.128-.063.255-.126.32-.189.063-.063.127-.063.127-.063l-.064.063c-.064.063-.191.126-.32.252-.255.19-.638.505-1.149.757-.51.316-1.15.568-1.98.82-.383.126-.83.19-1.213.252-.448.064-.895.127-1.342.127-.447 0-.894-.063-1.341-.127-.447-.063-.83-.189-1.214-.252-.383-.126-.766-.252-1.086-.378-.319-.126-.638-.316-.894-.442a17.58 17.58 0 0 1-1.15-.757c-.127-.063-.191-.189-.255-.252-.064 0-.064 0-.064-.063l.064.063Zm-4.982 3.154c.127.063.32.189.575.378.255.126.575.316.958.505.383.19.83.378 1.277.63.256.127.511.19.767.316.064 0 .127.063.191.063s.128.063.192.063a.931.931 0 0 0 .447.126c.064 0 .128.063.256.063.063 0 .127.063.255.063.128.064.32.064.447.127.064 0 .192.063.256.063.063 0 .191.063.255.063s.192.063.256.063h.255c.064 0 .192.063.256.063h.255c.064 0 .192.063.256.063s.191 0 .255.063h.256c.063 0 .191 0 .255.063.064 0 .192 0 .256.063h.255c.767.063 1.533.126 2.363.126.83 0 1.597-.063 2.364-.126.766-.063 1.469-.19 2.171-.378h.256c.064 0 .191-.063.255-.063s.192-.063.256-.063.192-.064.255-.064c.064 0 .128-.063.256-.063.064 0 .064 0 .128-.063.063 0 .063 0 .127-.063.064 0 .128-.063.256-.063.064 0 .064 0 .128-.063.063 0 .063 0 .127-.063.575-.19 1.15-.378 1.597-.63.958-.442 1.725-.82 2.236-1.136.255-.126.447-.252.575-.378.127-.064.191-.127.191-.127l-.064.063-.127.127c-.128.126-.32.252-.575.441-.511.379-1.214.82-2.172 1.325-.51.252-1.022.504-1.597.757-.064 0-.064 0-.127.063-.064 0-.064 0-.128.063-.064 0-.128.063-.256.063-.064 0-.064 0-.128.063-.063 0-.063 0-.127.063-.064 0-.128.063-.256.063-.064 0-.191.063-.255.063s-.192.063-.256.063-.191.063-.255.063-.064 0-.128.063c-.064 0-.064 0-.128.063-.702.19-1.469.316-2.235.442-.767.126-1.597.19-2.428.19-.83 0-1.66-.064-2.427-.19h-.255c-.128 0-.192 0-.256-.063-.064 0-.191-.063-.255-.063h-.256c-.063 0-.191-.063-.255-.063s-.192-.063-.256-.063c-.063 0-.063 0-.127-.064h-.128c-.064 0-.192-.063-.256-.063s-.064 0-.127-.063c-.064 0-.064 0-.128-.063-.064 0-.192-.063-.256-.063-.063 0-.191-.063-.255-.063s-.192-.063-.256-.063c-.191-.063-.319-.126-.447-.19-.064 0-.127-.062-.255-.062-.064 0-.128-.063-.256-.063-.128-.063-.32-.126-.447-.19-.064 0-.128-.063-.191-.063-.064 0-.128-.063-.192-.063l-.767-.378c-.51-.252-.894-.505-1.277-.694a17.873 17.873 0 0 1-.894-.63c-.192-.19-.384-.316-.511-.442-.064 0-.128-.063-.128-.063l-.064-.063s.064.063.192.126Zm11.37 9.587c-2.62 0-4.727-.126-4.727-.126s2.107-.126 4.726-.126c2.62 0 4.727.126 4.727.126s-2.172.126-4.727.126Zm0-.757c-2.62 0-4.727-.126-4.727-.126s2.107-.126 4.726-.126c2.62 0 4.727.126 4.727.126s-2.172.126-4.727.126Zm0-.883c-2.62 0-4.727-.126-4.727-.126s2.107-.126 4.726-.126c2.62 0 4.727.126 4.727.126s-2.172.126-4.727.126Zm10.602-4.352c-.064 0-.064.063-.127.126-.128.126-.32.252-.575.379-.511.315-1.214.82-2.172 1.324-.511.252-1.022.505-1.597.694-.064 0-.064 0-.128.063-.063 0-.063 0-.127.063-.064 0-.128.063-.256.063-.064 0-.064 0-.128.063-.064 0-.064 0-.127.063-.064 0-.128.063-.256.063-.064 0-.191.064-.255.064s-.192.063-.256.063-.191.063-.255.063-.064 0-.128.063c-.064 0-.064 0-.128.063-.702.19-1.405.315-2.235.441-.767.127-1.597.19-2.428.19-.83 0-1.66-.063-2.427-.19h-.255c-.064 0-.192 0-.256-.063-.064 0-.191-.063-.255-.063h-.256c-.064 0-.191-.063-.255-.063s-.192-.063-.256-.063h-.255c-.064 0-.192-.063-.256-.063s-.064 0-.128-.063c-.063 0-.063 0-.127-.063-.064 0-.192-.063-.256-.063s-.191-.063-.255-.063-.192-.063-.256-.063c-.191-.063-.32-.127-.447-.19-.064 0-.128-.063-.255-.063-.064 0-.128-.063-.256-.063-.128-.063-.32-.126-.447-.189-.064 0-.128-.063-.192-.063s-.127-.063-.191-.063l-.767-.379c-.51-.252-.894-.504-1.277-.693-.383-.253-.703-.442-.894-.568a4.337 4.337 0 0 0-.575-.379c-.064-.063-.128-.063-.128-.126l-.064-.063s.064.063.192.126c.127.063.32.19.575.379.255.126.575.315.958.505.383.189.83.378 1.277.63.256.126.511.19.767.316.064 0 .127.063.191.063s.128.063.192.063a.931.931 0 0 0 .447.126c.064 0 .128.063.256.063.063 0 .127.063.255.063.128.063.32.126.447.126.064 0 .192.063.256.063.063 0 .191.063.255.063s.192.063.256.063c.063 0 .063 0 .127.063h.128c.064 0 .192.064.256.064h.255c.064 0 .192.063.256.063s.191.063.255.063h.256c.063 0 .191 0 .255.063.064 0 .192 0 .256.063h.255c.767.063 1.533.126 2.363.126.83 0 1.597-.063 2.364-.126.766-.063 1.469-.252 2.171-.379h.256c.064 0 .191-.063.255-.063s.192-.063.256-.063.192-.063.255-.063c.064 0 .128-.063.256-.063.064 0 .064 0 .128-.063.063 0 .063 0 .127-.063.064 0 .128-.063.256-.063.064 0 .064 0 .128-.063.063 0 .063 0 .127-.063.575-.19 1.15-.442 1.597-.631.958-.442 1.725-.82 2.236-1.135.255-.127.447-.253.575-.379.127-.063.191-.126.191-.126.064 0 .064 0 0 0 .064 0 .064 0 0 0Zm1.15-1.577v-1.387l13.222 6.56-13.222-5.173Zm13.158 6.434c-.256.063-.511.189-.83.315-.32.126-.703.252-1.086.379-.256.189-.575.378-.894.567-.32.19-.703.442-1.086.631-.767.442-1.533.946-2.428 1.45a450.045 450.045 0 0 1-6.834 4.037s3.002-1.955 6.707-4.225a124.3 124.3 0 0 1 2.427-1.451 9.656 9.656 0 0 1 1.086-.631l.958-.568c.383-.126.766-.252 1.086-.378.32 0 .639-.063.894-.126.447-.19.703-.252.703-.252s-.256.126-.703.252Z" fill="#0A0951"/><path d="M57.936 5.74 43.5 10.723a4.187 4.187 0 0 1 1.406 1.388c2.171.504 3.96 1.261 4.918 2.144 3.066-1.766 6.068-3.595 9.134-5.361.51.252 1.15.378 1.852.378 1.47 0 2.683-.63 2.683-1.45 0-.19-.064-.379-.192-.568l8.687 3.028 1.597-.694c-3.002-1.388-6.068-2.712-9.07-4.1-.32-.063-.703-.126-1.022-.19-.32-.44-.894-.756-1.597-.945-.064-.631-.511-1.073-1.022-1.073-.447 0-.83.316-.958.757v.505l.064.063c.064.063.064.126.128.126h.191c.128.063.192.126.32.126.063 0 .191.063.255.063h.064-.32c-.127 0-.191 0-.319-.063a1.338 1.338 0 0 1-.383-.252c0-.063-.064-.063-.064-.126V4.1C57.425 3.028 54.998 2.02 52.634.947c-.383.063-.702.063-1.086.126a773.39 773.39 0 0 0 7.601 3.532c-.702.378-1.085.757-1.213 1.135Zm-12.52 6.118-1.021-1.009c4.535-1.577 9.006-3.09 13.54-4.667-4.215 1.892-8.367 3.784-12.518 5.676Zm16.544-6.18c.128.125.255.315.383.504s.32.378.511.63h.128c.064 0 .128.064.191.064.128.063.256.063.384.126.255.063.575.189.894.315.639.19 1.277.442 1.98.694 3.002 1.072 5.43 2.081 5.43 2.081s-2.492-.757-5.494-1.829c-.702-.252-1.341-.504-1.98-.694-.32-.126-.575-.252-.83-.315-.256-.126-.511-.19-.767-.315 0 0 0-.063-.064-.063l-.063-.063-.064-.064c-.064-.063-.064-.126-.128-.189-.064-.126-.192-.189-.256-.315-.064-.19-.191-.379-.255-.568-.256-.252-.32-.378-.32-.378s.128.126.32.378Zm-1.214-2.082c-.064 0-.128.063-.191.126l-.192.19-.192.188c-.063.063-.063.127-.127.19s-.064.126-.064.126v.063-.253c0-.063 0-.189.064-.252s.127-.189.191-.252.192-.126.256-.19c.127-.062.191-.062.255-.062h.256-.064c-.064.063-.128.063-.192.126Zm-5.365-.631c-1.98-.946-3.577-1.703-3.577-1.703s1.66.694 3.64 1.64c1.98.946 3.578 1.703 3.578 1.703s-1.661-.694-3.641-1.64Z" fill="#0A0951"/><path d="M30.658 7.063c-.575-1.072-1.214-2.144-1.789-3.216l-.447.252c.575 1.01 1.086 2.018 1.661 3.027.192-.063.383-.063.575-.063ZM42.157 7.001c.32-2.334.639-4.604.958-6.938L42.605 0l-.959 7.001h.511ZM36.086 6.939c-.447-2.27-.83-4.478-1.277-6.749l-.511.063c.447 2.27.83 4.478 1.277 6.749.192 0 .383-.063.511-.063ZM46.376 7.063c.575-1.072 1.214-2.144 1.789-3.216l.447.252c-.575 1.01-1.086 2.018-1.661 3.027-.192-.063-.383-.063-.575-.063Z" fill="#1664F9"/></svg>