<svg width="78" height="38" fill="none" xmlns="http://www.w3.org/2000/svg"><path d="M14.138 8.249c-.127.19-.19.38-.19.57 0 .821 1.206 1.454 2.666 1.454.7 0 1.334-.127 1.842-.38 3.049 1.771 6.034 3.605 9.082 5.376.953-.885 2.667-1.707 4.89-2.15.254-.506.762-1.012 1.397-1.392L19.472 6.731c-.127-.443-.508-.76-1.016-1.012 2.54-1.202 5.08-2.404 7.558-3.542-.381-.063-.699-.063-1.08-.126-2.413 1.075-4.826 2.087-7.176 3.162v.379c0 .064-.064.064-.064.127-.127.126-.254.19-.38.253-.128.063-.255.063-.319.063h-.317.063c.064 0 .128 0 .255-.063.063 0 .19-.063.317-.127h.191l.127-.126.063-.063V5.15c-.127-.443-.508-.76-.953-.76-.571 0-1.016.507-1.016 1.076-.698.19-1.27.506-1.587.949-.318.063-.699.126-1.017.19-3.175 1.264-6.16 2.656-9.145 3.984l1.588.696 8.574-3.036Zm18.735 3.542-1.016 1.012c-4.128-1.898-8.32-3.795-12.448-5.693a839.867 839.867 0 0 0 13.464 4.68Zm-11.05-7.97c1.968-.948 3.62-1.644 3.62-1.644s-1.588.822-3.557 1.708a88.403 88.403 0 0 1-3.62 1.644s1.587-.822 3.556-1.708Zm-5.399.57h.19c.064 0 .191 0 .255.063.127.063.19.063.254.19.063.063.127.19.19.253.064.063.064.19.064.253v.253-.064c0-.063-.064-.063-.064-.126-.063-.063-.063-.127-.127-.19l-.19-.19-.191-.19c-.064-.063-.127-.063-.19-.126-.064-.063-.127-.063-.191-.126 0 0-.064 0 0 0-.064 0 0 0 0 0Zm-5.525 4.554c.698-.253 1.333-.506 1.969-.696.317-.127.571-.19.889-.316.127-.064.254-.064.38-.127.064 0 .128-.063.191-.063h.127c.19-.253.381-.443.508-.633s.318-.316.381-.506c.19-.253.318-.38.318-.38s-.127.127-.318.444c-.127.126-.254.316-.38.506-.064.126-.128.19-.255.316-.063.063-.063.126-.127.19l-.063.063-.064.063s0 .063-.063.063c-.254.064-.508.19-.762.317-.254.126-.572.19-.826.316-.572.253-1.27.443-1.969.696a133.005 133.005 0 0 1-5.462 1.834s2.54-1.012 5.526-2.087Z" fill="#fff"/><path d="M68.754 29.438a.482.482 0 0 1-.254.126c-.063.063-.19.063-.254.127-.19.063-.317.126-.444.126s-.254.063-.381.063h-.762.19c.127 0 .318-.063.572-.126.127-.064.254-.064.38-.127l.382-.19a2.28 2.28 0 0 0 .635-.442c.254-.317.381-.696.381-1.012 0-.822-.635-1.518-1.651-1.898 3.175-2.024 6.287-4.047 9.463-6.071-.445 0-.953.063-1.398.063-2.794 1.707-5.652 3.415-8.446 5.123-.19-.57-.635-.949-1.207-.949-.571 0-1.016.38-1.206.949v.253c0 .063 0 .126.063.253.064.063.064.126.127.19l.19.19c.064.063.191.126.255.126.063 0 .063.063.127.063.063 0 .063 0 .127.063.063 0 .19.064.254.064h.571s-.063 0-.063.063c-.064.063-.19.063-.318.126h-.508c-.063 0-.127 0-.127-.063-.063 0-.127 0-.127-.063-.127-.063-.19-.063-.318-.127a.495.495 0 0 1-.254-.253.482.482 0 0 1-.127-.316c0-.126-.063-.19-.063-.253s0-.19.063-.253V25.2l-14.352-7.463c.063-.19.063-.38.063-.57 0-1.58-2.096-2.909-5.271-3.731-.762-1.582-3.303-2.783-6.288-2.783-2.984 0-5.525 1.138-6.287 2.783-3.175.759-5.271 2.15-5.271 3.731 0 .19.064.38.127.57l-14.353 7.336v.064c0 .063 0 .126.064.253 0 .063 0 .19-.064.253 0 .126-.063.19-.127.316-.063.063-.127.19-.254.253s-.19.126-.317.126c-.064 0-.127.064-.127.064-.064 0-.128 0-.128.063h-.508a.486.486 0 0 1-.317-.127c-.064 0-.064 0-.064-.063H11.724c.063 0 .127 0 .254-.063.063 0 .063 0 .127-.063.063 0 .063-.064.127-.064.064-.063.19-.063.254-.126l.19-.19c.064-.063.128-.126.128-.19 0-.063.063-.126.063-.253v-.253c-.19-.569-.635-.948-1.207-.948-.571 0-1.016.38-1.206.948-2.795-1.707-5.652-3.415-8.447-5.123-.444 0-.952-.063-1.397-.063 3.175 2.024 6.287 4.048 9.463 6.072-.953.38-1.651 1.075-1.651 1.897 0 .38.127.76.38 1.012.191.19.382.38.636.443l.38.19c.128.063.255.063.382.126.254.064.444.127.571.127h.191-.762c-.127 0-.254 0-.381-.064a1.18 1.18 0 0 1-.445-.126.482.482 0 0 1-.254-.127c-.127.127-.19.064-.254.064-.063-.064-.127-.064-.19-.127-.127.19-.254.443-.254.696 0 1.012 1.46 1.77 3.238 1.77 1.779 0 3.24-.821 3.24-1.77 0-.19-.064-.443-.191-.633l10.288 5.187 2.096-.633c-3.556-2.15-7.05-4.3-10.606-6.45 5.462-1.203 13.59-2.974 13.59-2.974-.126.064-.507 1.139-.57 1.329-.191.442-.382.948-.509 1.391a19.977 19.977 0 0 0-.762 2.783 37.808 37.808 0 0 0-.762 5.376c-.254.253-.445.633-.445 1.012 0 .822.636 1.455 1.461 1.455.826 0 1.46-.633 1.46-1.455 0-.38-.126-.696-.38-.949l-.064-.063a1.328 1.328 0 0 0-.38-.253c-.128-.063-.255-.063-.382-.126-.127 0-.19-.064-.254-.064h-.127.064c.063 0 .127-.063.254-.063s.254 0 .38.063c.064 0 .191.064.255.127v-.063c.063-2.72.698-5.377 1.46-8.033.064-.253.509-2.214 1.017-2.087.508.126.952.253 1.524.38v1.58c0 .696.571 1.266 1.27 1.266h8.574c.698 0 1.333-.57 1.333-1.265V25.2c.318-.063.635-.127.89-.253.444.253.761 1.834.825 2.024.762 2.593 1.397 5.25 1.46 8.032v.064c.064-.064.191-.064.255-.127.127-.063.317-.063.38-.063.128 0 .191 0 .255.063h.063-.127c-.063 0-.127 0-.254.063-.127 0-.254.064-.38.127-.128.063-.255.126-.382.253 0 0-.063 0-.063.063-.19.253-.381.57-.381.949 0 .822.635 1.454 1.46 1.454.826 0 1.461-.632 1.461-1.454 0-.38-.19-.76-.445-1.012a37.81 37.81 0 0 0-.762-5.376 22.7 22.7 0 0 0-.762-2.783 12.29 12.29 0 0 0-.508-1.392c-.063-.19-.38-1.265-.571-1.328 0 0 8.192 1.771 13.59 2.973-3.556 2.15-7.049 4.3-10.605 6.451l2.095.633 10.86-5.187c-.127.19-.19.38-.19.633 0 1.012 1.46 1.77 3.239 1.77 1.778 0 3.239-.822 3.239-1.77 0-.253-.064-.443-.254-.696 0 .063-.064.063-.128.127Zm2.668-6.831c2.286-1.455 4.255-2.53 4.255-2.53s-1.842 1.265-4.128 2.72a82.895 82.895 0 0 1-4.255 2.53s1.842-1.329 4.128-2.72Zm-5.525 1.707c-.064 0-.064.064-.127.064-.127.063-.254.19-.381.316s-.254.253-.318.38c-.064.063-.064.126-.064.126v.063-.253c0-.063.064-.19.064-.253.064-.063.127-.19.19-.253.064-.063.191-.126.255-.19.063-.063.19-.063.254-.063 0 0 .063 0 .127.063 0-.063 0 0 0 0 .063 0 .063 0 0 0 .063 0 0 0 0 0Zm-54.237 0s.064 0 0 0h.191c.063 0 .19 0 .254.064.063.063.19.126.254.19.063.063.127.19.19.252.128.064.128.19.128.253v.253-.063c0-.063-.064-.063-.064-.126-.063-.127-.19-.253-.317-.38-.127-.126-.255-.253-.381-.316l-.255-.127Zm-5.588-1.517c-2.287-1.455-4.128-2.72-4.128-2.72s1.905 1.075 4.255 2.53c2.286 1.454 4.128 2.72 4.128 2.72s-1.969-1.076-4.255-2.53Zm11.558 5.565c.762.443 1.588.949 2.414 1.455a195.543 195.543 0 0 1 6.668 4.238s-3.049-1.771-6.796-4.048c-.825-.506-1.65-1.012-2.413-1.455a9.576 9.576 0 0 0-1.08-.632c-.317-.19-.634-.38-.888-.57a20.706 20.706 0 0 1-1.08-.38c-.318-.126-.572-.189-.826-.315-.444-.19-.698-.253-.698-.253s.254.063.698.19c.254.063.508.19.826.252.317.127.698.19 1.08.38l.952.57c.381.126.762.315 1.143.568Zm9.145-8.285L13.63 25.263l13.146-6.578v1.392Zm12.067-9.045c3.43 0 5.589 2.024 5.97 2.404a12.628 12.628 0 0 0-5.906-1.455c-2.858 0-5.018.949-5.97 1.455.317-.38 2.477-2.404 5.906-2.404Zm-5.97 3.858c.064.064.19.127.318.19.317.127.698.38 1.27.57.254.126.572.19.89.316.317.126.698.19 1.015.253l1.143.19c.381.063.826.063 1.27.063.89 0 1.715-.127 2.414-.253.762-.127 1.397-.38 1.905-.57.572-.19.953-.442 1.27-.569.127-.063.254-.126.318-.19.063-.063.127-.063.127-.063l-.064.063c-.063.064-.19.127-.317.253-.254.19-.635.506-1.143.76-.508.316-1.143.569-1.97.822-.38.126-.825.19-1.206.253-.444.063-.889.126-1.334.126-.444 0-.889-.063-1.333-.126-.445-.064-.826-.19-1.207-.253a20.612 20.612 0 0 1-1.08-.38c-.317-.126-.635-.316-.889-.443-.508-.316-.889-.569-1.143-.759-.127-.063-.19-.19-.254-.253-.063 0-.063 0-.063-.063l.063.063Zm-4.953 3.163c.127.063.317.19.571.38.254.126.572.316.953.505.38.19.825.38 1.27.633.254.126.508.19.762.316.064 0 .127.063.19.063.064 0 .128.064.191.064a.921.921 0 0 0 .445.126c.063 0 .127.063.254.063.063 0 .127.064.254.064.127.063.317.063.444.126.064 0 .19.063.254.063s.19.064.254.064.19.063.254.063h.254c.064 0 .191.063.255.063h.254c.063 0 .19.063.254.063.063 0 .19 0 .254.064h.254c.063 0 .19 0 .254.063.063 0 .19 0 .254.063h.254c.762.063 1.524.127 2.35.127.825 0 1.587-.064 2.35-.127.761-.063 1.46-.19 2.159-.38h.254c.063 0 .19-.063.254-.063.063 0 .19-.063.254-.063.063 0 .19-.063.254-.063.063 0 .127-.063.254-.063.063 0 .063 0 .127-.064.063 0 .063 0 .127-.063.063 0 .127-.063.254-.063.063 0 .063 0 .127-.063.063 0 .063 0 .127-.064.572-.19 1.143-.38 1.588-.632.952-.443 1.714-.822 2.222-1.139.254-.126.445-.253.572-.38.127-.062.19-.126.19-.126l-.063.064-.127.126c-.127.127-.318.253-.572.443-.508.38-1.206.822-2.159 1.328-.508.253-1.016.506-1.588.759-.063 0-.063 0-.127.063-.063 0-.063 0-.127.064-.063 0-.127.063-.254.063-.063 0-.063 0-.127.063-.063 0-.063 0-.127.063-.063 0-.127.064-.254.064-.063 0-.19.063-.254.063-.063 0-.19.063-.254.063-.063 0-.19.063-.254.063-.063 0-.063 0-.127.064-.063 0-.063 0-.127.063-.698.19-1.46.316-2.223.443-.762.126-1.587.19-2.413.19-.826 0-1.651-.064-2.413-.19h-.254c-.127 0-.19 0-.254-.064-.064 0-.19-.063-.254-.063h-.254c-.064 0-.191-.063-.255-.063-.063 0-.19-.063-.254-.063-.063 0-.063 0-.127-.064h-.126c-.064 0-.191-.063-.255-.063-.063 0-.063 0-.127-.063-.063 0-.063 0-.127-.063-.063 0-.19-.064-.254-.064-.063 0-.19-.063-.254-.063-.063 0-.19-.063-.254-.063a3.109 3.109 0 0 1-.444-.19c-.064 0-.127-.063-.254-.063-.064 0-.127-.063-.254-.063-.127-.064-.318-.127-.445-.19-.063 0-.127-.063-.19-.063-.064 0-.127-.064-.19-.064l-.763-.38c-.508-.252-.89-.505-1.27-.695-.381-.253-.635-.443-.89-.632-.19-.19-.38-.317-.507-.443-.064 0-.127-.063-.127-.063l-.064-.064s.064.064.19.127Zm11.304 9.614c-2.604 0-4.7-.127-4.7-.127s2.096-.126 4.7-.126 4.7.126 4.7.126-2.16.127-4.7.127Zm0-.76c-2.604 0-4.7-.126-4.7-.126s2.096-.126 4.7-.126 4.7.126 4.7.126-2.16.127-4.7.127Zm0-.885c-2.604 0-4.7-.126-4.7-.126s2.096-.127 4.7-.127 4.7.127 4.7.127-2.16.126-4.7.126Zm10.543-4.364c-.064 0-.064.063-.127.127a2.217 2.217 0 0 1-.572.379c-.508.316-1.207.822-2.16 1.328-.507.253-1.015.506-1.587.696-.064 0-.064 0-.127.063-.064 0-.064 0-.127.063-.064 0-.127.064-.254.064-.064 0-.064 0-.127.063-.064 0-.064 0-.127.063-.064 0-.127.063-.254.063-.064 0-.19.064-.254.064s-.19.063-.254.063-.19.063-.254.063-.064 0-.127.063c-.064 0-.064 0-.127.064-.699.19-1.397.316-2.223.442-.762.127-1.588.19-2.413.19-.826 0-1.652-.063-2.414-.19h-.254c-.063 0-.19 0-.254-.063-.063 0-.19-.063-.254-.063h-.254c-.063 0-.19-.063-.254-.063s-.19-.064-.254-.064h-.254c-.063 0-.19-.063-.254-.063s-.064 0-.127-.063c-.064 0-.064 0-.127-.063-.064 0-.19-.064-.254-.064s-.19-.063-.254-.063-.19-.063-.254-.063c-.19-.063-.318-.127-.445-.19-.063 0-.127-.063-.254-.063-.063 0-.127-.063-.254-.063-.127-.064-.317-.127-.444-.19-.064 0-.127-.063-.19-.063-.064 0-.128-.064-.191-.064-.255-.126-.508-.253-.762-.38-.509-.252-.89-.505-1.27-.695-.382-.253-.7-.442-.89-.569a4.304 4.304 0 0 0-.571-.38c-.064-.063-.127-.063-.127-.126l-.064-.063s.064.063.19.126c.128.064.318.19.572.38.254.126.572.316.953.506.38.19.825.38 1.27.632.254.127.508.19.762.316.064 0 .127.064.19.064.064 0 .128.063.191.063a.92.92 0 0 0 .445.126c.063 0 .127.064.254.064.063 0 .127.063.254.063.127.063.317.126.444.126.064 0 .19.064.254.064s.19.063.254.063.19.063.254.063.064 0 .127.063h.127c.064 0 .191.064.255.064h.254c.063 0 .19.063.254.063.063 0 .19.063.254.063h.254c.063 0 .19 0 .254.063.063 0 .19 0 .254.064h.254c.762.063 1.524.126 2.35.126.825 0 1.587-.063 2.35-.126.761-.064 1.46-.253 2.159-.38h.254c.063 0 .19-.063.254-.063.063 0 .19-.063.254-.063.063 0 .19-.064.254-.064.063 0 .127-.063.254-.063.063 0 .063 0 .127-.063.063 0 .063 0 .127-.063.063 0 .127-.064.254-.064.063 0 .063 0 .127-.063.063 0 .063 0 .127-.063.572-.19 1.143-.443 1.588-.633.952-.442 1.714-.822 2.222-1.138.254-.127.445-.253.572-.38.127-.063.19-.126.19-.126.064 0 .064 0 0 0 .064 0 .064 0 0 0Zm1.143-1.581v-1.392l13.146 6.578-13.146-5.186Zm13.082 6.451c-.254.063-.508.19-.825.316-.318.127-.699.253-1.08.38-.254.19-.572.38-.889.57-.318.189-.699.442-1.08.631-.762.443-1.524.95-2.413 1.455a446.266 446.266 0 0 1-6.795 4.048s2.985-1.96 6.668-4.237c.826-.506 1.651-1.012 2.413-1.455a9.578 9.578 0 0 1 1.08-.633l.953-.569c.38-.126.762-.253 1.08-.38.317 0 .634-.063.888-.126.445-.19.699-.253.699-.253s-.254.127-.699.253Z" fill="#fff"/><path d="m58.214 6.668-14.352 4.996a4.18 4.18 0 0 1 1.397 1.392c2.159.506 3.937 1.265 4.89 2.15 3.048-1.77 6.033-3.605 9.081-5.376.509.253 1.144.38 1.842.38 1.46 0 2.668-.633 2.668-1.455 0-.19-.064-.38-.19-.57l8.636 3.037 1.588-.696c-2.985-1.392-6.033-2.72-9.018-4.111-.318-.064-.699-.127-1.016-.19-.318-.443-.89-.759-1.588-.949-.064-.632-.508-1.075-1.016-1.075-.445 0-.826.316-.953.759v.506l.064.063c.063.063.063.127.127.127h.19c.127.063.19.126.318.126.063 0 .19.063.254.063h.063-.317c-.127 0-.19 0-.318-.063a1.328 1.328 0 0 1-.38-.253c0-.063-.064-.063-.064-.126v-.38c-2.414-1.075-4.827-2.087-7.177-3.162-.38.063-.698.063-1.08.126 2.54 1.202 5.081 2.404 7.558 3.542-.699.38-1.08.76-1.207 1.139Zm-12.447 6.135L44.75 11.79c4.509-1.581 8.954-3.1 13.463-4.68-4.191 1.897-8.32 3.794-12.447 5.692Zm16.448-6.199c.127.127.254.317.381.506.127.19.318.38.509.633h.126c.064 0 .127.063.191.063.127.063.254.063.381.127.254.063.572.19.89.316.634.19 1.27.443 1.968.696a126.085 126.085 0 0 1 5.398 2.087s-2.477-.76-5.462-1.834c-.698-.253-1.333-.506-1.968-.696-.318-.127-.572-.253-.826-.316-.254-.127-.508-.19-.762-.317 0 0 0-.063-.063-.063l-.064-.063-.064-.063c-.063-.064-.063-.127-.127-.19-.063-.127-.19-.19-.254-.316-.063-.19-.19-.38-.254-.57-.254-.253-.317-.379-.317-.379s.127.126.317.38ZM61.01 4.517c-.064 0-.127.064-.19.127l-.191.19-.19.19c-.064.062-.064.126-.128.189-.063.063-.063.126-.063.126v.064-.254c0-.063 0-.189.063-.252.064-.064.127-.19.19-.253.064-.063.191-.127.255-.19.127-.063.19-.063.254-.063h.254-.064c-.063.063-.127.063-.19.126Zm-5.335-.632c-1.969-.949-3.556-1.708-3.556-1.708s1.65.696 3.62 1.645c1.968.948 3.556 1.707 3.556 1.707s-1.651-.696-3.62-1.644Z" fill="#fff"/><path d="M31.093 7.995c-.572-1.075-1.207-2.15-1.779-3.226l-.444.253c.571 1.012 1.08 2.024 1.651 3.036.19-.063.381-.063.572-.063ZM42.526 7.934c.318-2.34.635-4.617.953-6.958L42.97.913l-.953 7.02h.508ZM36.49 7.87c-.445-2.278-.826-4.491-1.27-6.768l-.509.063c.445 2.277.826 4.49 1.27 6.768.191 0 .382-.064.509-.064ZM46.72 7.995c.572-1.075 1.208-2.15 1.78-3.225l.444.253c-.572 1.011-1.08 2.023-1.652 3.035-.19-.063-.38-.063-.571-.063Z" fill="#1664F9"/></svg>